<svg xmlns="http://www.w3.org/2000/svg" width="48" height="48" fill="none">
    <path d="M.001 0H48v48H.001V0z" fill="#f2f3f4"/><path fill-rule="evenodd" d="M45.265 2.783H2.736v42.434h42.529V2.783zM.001 0v48H48V0H.001z" fill="#bdc1c7"/><path d="M15.908 10.423c0 3.03-2.456 5.486-5.486 5.486s-5.486-2.456-5.486-5.486 2.456-5.486 5.486-5.486 5.486 2.456 5.486 5.486z" fill="#e2e5ea"/><path fill-rule="evenodd" d="M10.423 13.183c1.594 0 2.807-1.28 2.807-2.76s-1.213-2.76-2.807-2.76-2.806 1.28-2.806 2.76 1.213 2.76 2.806 2.76zm0 2.726c3.03 0 5.486-2.456 5.486-5.486s-2.456-5.486-5.486-5.486-5.486 2.456-5.486 5.486 2.456 5.486 5.486 5.486z" fill="#bdc1c7"/><path d="M25.92 25.45l-8.006-6.113L0 33.401v14.462h25.92V25.45z" fill="#e2e5ea"/><path fill-rule="evenodd" d="M23.183 45.088H2.737V34.763l15.2-11.933 5.246 4.005v18.253zM25.92 25.45l-8.006-6.113L0 33.401v14.462h25.92V25.45z" fill="#bdc1c7"/><path d="M48 31.063L31.2 19.2 0 47.862H48V31.063z" fill="#e2e5ea"/><path fill-rule="evenodd" d="M0 47.862L31.2 19.2 48 31.063v16.799H0zm7.103-2.779l24.319-22.342 13.842 9.775v12.567H7.103z" fill="#bdc1c7"/>
</svg>
