<svg width="488" height="461" viewBox="0 0 488 461" fill="none" xmlns="http://www.w3.org/2000/svg">
<g clip-path="url(#clip0_4252_12122)">
<path opacity="0.1" d="M171.182 453.601C218.195 453.601 256.307 446.378 256.307 437.468C256.307 428.559 218.195 421.336 171.182 421.336C124.169 421.336 86.0576 428.559 86.0576 437.468C86.0576 446.378 124.169 453.601 171.182 453.601Z" fill="#197C93"/>
<path opacity="0.1" d="M283.531 132.872C252.246 131.789 222.45 121.682 193.997 110.627C165.545 99.5721 137.364 87.3277 106.828 81.4715C87.1878 77.7043 64.7248 77.1675 48.9035 87.6904C33.6719 97.8457 28.751 115.327 26.1069 131.561C24.1153 143.777 22.9455 156.635 28.3981 168.072C32.1879 176.013 38.907 182.686 43.5572 190.293C59.7362 216.755 48.2992 249.387 30.7716 275.225C22.554 287.344 13.007 298.921 6.66015 311.809C0.313259 324.696 -2.62091 339.514 2.93323 352.696C8.43419 365.753 21.5485 375.541 35.7553 382.432C64.6088 396.432 98.5958 400.436 131.761 402.709C205.154 407.728 278.934 405.557 352.52 403.376C379.754 402.573 407.104 401.756 433.893 397.544C448.772 395.203 464.129 391.49 474.933 382.524C488.642 371.145 492.04 351.879 482.851 337.613C467.441 313.676 424.844 307.732 414.06 282.049C408.134 267.909 414.219 252.163 422.838 239.053C441.323 210.923 472.303 186.245 473.932 154.097C475.054 132.016 460.161 109.902 437.132 99.4512C412.996 88.498 379.522 89.8762 361.723 108.006C343.379 126.653 311.156 133.834 283.531 132.872Z" fill="#197C93"/>
<path d="M258.671 253.933L243.865 243.947L251.333 232.824L212.227 229.705L198.175 240.576L180.584 230.711L165.913 232.476L165.739 228.608C165.558 224.574 165.153 220.555 164.526 216.566C164.589 215.357 164.632 213.969 164.627 212.461C164.627 206.101 163.767 197.673 159.987 192.053L160.857 184.229L153.8 175.887C154.933 173.628 156.225 171.453 157.667 169.378C157.908 169.03 158.15 168.691 158.411 168.362C167.571 167.7 174.798 160.166 174.798 150.953C174.798 150.528 174.798 150.102 174.75 149.681C174.75 149.512 174.716 149.338 174.696 149.169C175.591 149.652 176.495 150.136 177.399 150.619C177.568 150.861 177.761 151.103 177.974 151.388L178.017 151.442L178.288 151.775L178.375 151.877C178.472 151.993 178.573 152.104 178.675 152.22L178.742 152.298C178.999 152.583 179.269 152.873 179.559 153.158C179.594 153.186 179.626 153.217 179.656 153.25L180.019 153.589L180.12 153.681C180.429 153.956 180.758 154.222 181.087 154.474L181.193 154.551L181.609 154.836L181.744 154.923C181.904 155.02 182.068 155.122 182.228 155.214L182.286 155.247C182.474 155.349 182.668 155.446 182.861 155.538L182.958 155.576C183.122 155.647 183.283 155.715 183.441 155.779L183.591 155.833C183.76 155.891 183.924 155.944 184.098 155.992L184.205 156.021C184.417 156.074 184.63 156.118 184.848 156.152H184.872C185.077 156.185 185.283 156.206 185.491 156.215H185.631C185.816 156.224 186.001 156.224 186.187 156.215H186.307C186.539 156.201 186.77 156.174 186.999 156.132C188.08 155.99 189.119 155.617 190.044 155.039C190.28 154.882 190.489 154.688 190.663 154.464C191.63 153.197 190.566 151.809 190.566 151.809C190.189 150.91 187.743 150.276 187.743 150.276C187.743 150.276 180.009 147.046 180.009 144.473C180.009 141.9 178.075 128.553 158.116 125.502C158.116 125.502 145.132 124.772 141.483 131.726L141.406 132.538C140.332 133.21 139.443 134.56 138.384 134.956C137.927 135.054 137.486 135.217 137.074 135.44V135.348C136.952 135.455 136.852 135.585 136.779 135.73C136.552 136.182 136.416 136.675 136.378 137.181C136.269 137.798 136.055 138.392 135.745 138.936C135.659 139.091 135.562 139.239 135.455 139.381L135.373 139.511C135.934 139.555 136.498 139.464 137.016 139.246C136.935 139.908 136.772 140.557 136.533 141.18C136.84 141.19 137.144 141.111 137.408 140.953C137.672 140.796 137.885 140.565 138.022 140.29V140.251L138.085 140.164C138.206 139.94 138.307 139.706 138.384 139.463L138.331 139.521C138.428 139.207 138.515 138.888 138.621 138.578C138.67 138.404 138.75 138.24 138.858 138.095C138.987 137.964 139.145 137.866 139.319 137.809C139.492 137.751 139.677 137.734 139.859 137.761L139.66 141.954H139.747C139.631 142.259 139.489 142.553 139.322 142.834C138.636 143.946 137.389 144.705 136.929 145.924C136.731 146.512 136.656 147.134 136.707 147.752C136.707 148.115 136.75 148.482 136.779 148.845V148.816C136.847 149.783 136.866 150.702 136.344 151.48C135.987 152.012 135.411 152.414 135.213 153.018C135.158 153.187 135.134 153.363 135.141 153.54C135.18 154.07 135.29 154.593 135.469 155.093C135.472 155.083 135.472 155.073 135.469 155.064C135.59 155.432 135.618 155.824 135.552 156.205C135.334 157.172 134.16 157.98 134.218 158.903C134.214 159.025 134.232 159.146 134.271 159.261C134.497 159.712 134.888 160.059 135.363 160.228C136.108 160.652 136.964 160.841 137.819 160.77C138.139 160.712 138.449 160.606 138.737 160.456C138.399 161.234 138.051 162.003 137.698 162.733C137.645 162.849 137.587 162.965 137.529 163.082C137.529 163.082 134.541 161.084 132.845 165.156C132.349 166.002 131.995 166.923 131.796 167.884C131.711 168.268 131.591 168.643 131.438 169.005C130.685 170.281 129.557 171.294 128.209 171.907C124.748 173.493 110.768 190.936 110.522 195.453C110.401 197.216 110.103 198.962 109.632 200.666C108.532 204.677 108.249 208.869 108.801 212.993C108.974 214.325 109.26 215.64 109.657 216.924C111.141 221.436 112.132 229.855 112.132 229.855L113.736 244.469C113.677 246.486 113.764 248.505 113.997 250.509C112.359 252.381 105.78 260.181 108.293 262.304C110.227 263.977 113.611 263.702 115.51 263.358C113.91 267.319 111.392 274.205 111.058 278.935C110.575 285.932 111.885 295.202 113.959 298.762C116.032 302.321 122.945 311.451 122.945 311.451C122.945 311.451 122.621 323.976 125.091 328.526C127.561 333.077 128.557 342.517 128.557 342.517C128.557 342.517 130.863 350.486 129.707 353.417C128.552 356.347 131.849 358.784 128.388 360.733C124.927 362.682 120.499 406.606 120.499 406.606C120.499 406.606 118.715 435.394 120.499 436.86C120.594 436.929 120.696 436.989 120.803 437.038V446.71C120.803 446.71 119.566 448.741 124.598 449.152C128.045 449.428 137.814 450.052 143.61 450.414L148.1 450.695C148.1 450.695 158.735 452.813 163.434 450.695C168.132 448.577 176.461 448.625 175.223 443.03C175.059 442.269 174.84 441.52 174.566 440.791C173.208 437.319 170.902 436.922 166.653 435.955C166.406 435.902 166.169 435.854 165.952 435.815C161.476 435.036 160.006 437.121 157.497 434.408C155.317 432.062 148.376 429.436 146.012 428.605C146.07 428.431 146.143 428.261 146.201 428.082C145.531 427.969 144.909 427.665 144.407 427.207L150.812 427.613L154.626 427.85C154.626 427.85 163.666 429.654 167.678 427.85C171.69 426.047 178.747 426.095 177.693 421.341C177.555 420.693 177.369 420.057 177.138 419.436C175.982 416.486 174.02 416.162 170.409 415.345C170.201 415.301 170.008 415.258 169.814 415.224C166.01 414.561 164.763 416.331 162.631 414.029C160.804 412.066 155.037 409.866 152.963 409.116C152.963 408.043 151.513 406.514 150.6 404.981C149.526 403.192 151.508 396.93 151.508 396.93L152.639 370.947C153.07 370.755 153.526 370.624 153.993 370.56C153.993 370.56 159.107 365.676 157.952 360.472C157.716 358.898 157.594 357.31 157.585 355.718C159.267 354.156 161.582 351.85 162.24 350.428C163.313 348.112 162.24 336.888 162.24 336.888V293.969L170.796 294.835L178.559 295.633L180.923 295.875L188.686 296.658L206.528 298.462L222.605 295.415L229.561 294.1L243.865 291.392V256.38L258.671 253.933ZM140.912 137.916L139.917 137.809C140.245 137.824 140.593 137.887 140.912 137.916Z" fill="url(#paint0_linear_4252_12122)"/>
<path d="M223.968 276.666C219.134 283.586 201.756 279.921 201.756 279.921L188.289 267.314L186.477 265.607L189.517 259.146C189.517 259.146 190.484 259.412 192.142 259.886C200.848 262.415 228.048 270.849 223.968 276.666Z" fill="#EFB7B9"/>
<path opacity="0.1" d="M192.132 259.886C191.538 261.956 189.909 265.055 188.289 267.314L186.477 265.607L189.517 259.146C189.517 259.146 190.494 259.412 192.132 259.886Z" fill="black"/>
<path d="M145.944 187.028C145.944 187.028 133.531 192.536 134.14 206.062C134.578 214.776 135.527 223.457 136.982 232.06C136.982 232.06 134.444 252.414 145.011 257.661C155.578 262.908 165.357 267.222 165.357 267.222C165.357 267.222 181.889 269.001 183.943 269.736C185.998 270.471 192.417 259.233 191.233 257.482C190.049 255.732 174.875 252.061 172.941 249.14C171.008 246.219 166.537 244.416 166.537 244.416C166.537 244.416 161.92 241.621 161.606 239.096C161.292 236.572 162.51 234.691 162.819 233.583C163.129 232.476 163.912 221.784 163.912 221.784C163.912 221.784 169.123 183.725 145.944 187.028Z" fill="#DCE6F2"/>
<path opacity="0.1" d="M154.138 231.504C154.138 231.504 137.109 234.357 138.757 240.32C138.757 240.32 144.939 233.883 154.138 231.504Z" fill="black"/>
<path opacity="0.1" d="M154.269 233.917C154.269 233.917 144.906 241.562 146.738 241.954C148.57 242.346 154.269 233.917 154.269 233.917Z" fill="black"/>
<path opacity="0.1" d="M158.769 236.582C158.769 236.582 156.26 241.722 157.802 241.374C159.344 241.026 158.769 236.582 158.769 236.582Z" fill="black"/>
<path opacity="0.1" d="M192.76 260.432L191.726 260.137C192.021 259.17 192.103 258.387 191.861 258.024C190.677 256.274 175.513 252.608 173.584 249.682C171.656 246.757 167.18 244.958 167.18 244.958C167.18 244.958 162.563 242.163 162.249 239.638C161.935 237.114 163.153 235.233 163.462 234.125C163.772 233.018 164.555 222.321 164.555 222.321C164.555 222.321 169.751 184.267 146.573 187.57C146.573 187.57 134.159 193.083 134.764 206.609C135.202 215.323 136.153 224.004 137.611 232.607C137.611 232.607 135.073 252.961 145.64 258.208C156.207 263.455 165.986 267.768 165.986 267.768C165.986 267.768 182.513 269.543 184.572 270.283C185.35 270.564 186.757 269.118 188.134 267.13L188.918 267.86L202.385 280.463C202.385 280.463 219.763 284.133 224.596 277.213C228.681 271.391 201.486 262.957 192.76 260.432Z" fill="black"/>
<path d="M138.801 136.262C138.327 136.354 137.874 136.529 137.462 136.779C136.978 137.181 136.978 137.867 136.857 138.467C136.715 139.301 136.385 140.092 135.891 140.778C136.441 140.819 136.992 140.728 137.5 140.512C137.418 141.174 137.255 141.824 137.017 142.447C137.318 142.454 137.615 142.375 137.872 142.218C138.13 142.061 138.336 141.833 138.467 141.562C138.723 141.017 138.925 140.448 139.071 139.864C139.117 139.69 139.196 139.526 139.303 139.381C139.748 138.854 140.575 139.091 141.261 139.158C141.832 139.207 142.406 139.101 142.923 138.853C143.44 138.605 143.881 138.222 144.2 137.746C144.93 136.639 144.974 133.805 143.233 133.505C141.416 133.205 140.285 135.71 138.801 136.262Z" fill="#965D7B"/>
<g opacity="0.1">
<path opacity="0.1" d="M137.413 137.374C137.457 137.137 137.486 136.89 137.539 136.653C137.08 137.055 137.055 137.736 136.935 138.34C136.874 138.689 136.778 139.031 136.649 139.36C137.03 138.754 137.289 138.079 137.413 137.374Z" fill="black"/>
<path opacity="0.1" d="M137.568 141.368C137.808 140.746 137.971 140.096 138.051 139.434C137.567 139.638 137.043 139.729 136.519 139.7C136.366 140.04 136.18 140.364 135.963 140.667C136.511 140.71 137.061 140.62 137.568 140.406C137.487 141.068 137.325 141.718 137.084 142.34C137.385 142.347 137.682 142.268 137.939 142.111C138.196 141.954 138.403 141.727 138.535 141.455C138.655 141.236 138.752 141.004 138.825 140.764C138.683 140.962 138.493 141.122 138.274 141.227C138.054 141.333 137.811 141.381 137.568 141.368Z" fill="black"/>
<path opacity="0.1" d="M141.812 138.079C141.125 138.012 140.294 137.775 139.849 138.302C139.743 138.448 139.665 138.611 139.617 138.785C139.573 138.911 139.535 139.041 139.501 139.172C139.96 138.809 140.705 139.003 141.328 139.066C141.899 139.112 142.472 139.006 142.989 138.758C143.505 138.51 143.947 138.129 144.267 137.654C144.414 137.419 144.523 137.163 144.591 136.895C144.26 137.305 143.833 137.627 143.349 137.834C142.864 138.04 142.336 138.124 141.812 138.079Z" fill="black"/>
</g>
<path d="M153.35 176.201L160.721 185.07L159.759 194.021L150.851 180.07L153.35 176.201Z" fill="#DCE6F2"/>
<path opacity="0.1" d="M160.717 185.07L159.813 193.489L159.755 194.021L151.716 181.429L150.851 180.07L151.102 179.678L153.345 176.201L153.843 176.801L160.717 185.07Z" fill="black"/>
<path d="M164.546 164.193C162.051 164.909 159.668 167.366 157.595 170.349C156.193 172.408 154.939 174.564 153.843 176.8C153.162 178.164 152.562 179.475 152.065 180.616L151.717 181.428C150.875 183.416 150.407 184.746 150.407 184.746C150.407 184.746 131.313 170.383 134.334 169.416C135.349 169.092 136.683 166.916 138.003 164.174L138.167 163.826C139.003 162.066 139.825 160.102 140.555 158.255C142.049 154.459 143.156 151.161 143.156 151.161C143.156 151.161 172.159 162.017 164.546 164.193Z" fill="#EFB7B9"/>
<path d="M175.968 150.354C175.968 150.354 180.376 158.333 186.298 157.245C192.219 156.157 189.783 152.96 189.783 152.96L175.968 150.354Z" fill="#444053"/>
<path d="M167.427 426.554C163.521 428.338 154.689 426.554 154.689 426.554L150.967 426.322C146.133 426.012 138.041 425.49 135.18 425.258C131.003 424.915 132.028 423.203 132.028 423.203V412.859L152.292 407.723C152.292 407.723 160.301 410.465 162.496 412.859C164.579 415.141 165.798 413.386 169.515 414.044C169.699 414.077 169.892 414.116 170.095 414.165C173.624 414.972 175.538 415.291 176.669 418.217C176.896 418.832 177.079 419.462 177.215 420.103C178.259 424.813 171.328 424.779 167.427 426.554Z" fill="#A36468"/>
<path opacity="0.1" d="M176.669 418.217C175.943 418.671 175.18 419.062 174.387 419.387C171.729 420.601 169.201 422.081 166.513 423.227C163.825 424.373 160.93 425.19 158.02 424.973C156.497 424.861 154.941 424.489 153.486 424.924C152.586 425.272 151.738 425.742 150.967 426.322C146.133 426.012 138.041 425.49 135.18 425.258C131.003 424.915 132.028 423.203 132.028 423.203V421.994C132.178 421.994 132.347 421.95 132.54 421.936C133.541 421.92 134.537 422.068 135.489 422.376C137.587 422.946 139.675 423.507 141.773 424.068C141.946 423.417 142.249 422.807 142.664 422.277C143.08 421.747 143.599 421.306 144.19 420.983C145.388 420.347 146.731 420.038 148.086 420.088C151.339 420.132 154.419 421.674 157.667 421.829C158.575 421.913 159.489 421.759 160.321 421.384C160.766 421.162 161.157 420.838 161.592 420.591C162.288 420.254 163.024 420.006 163.782 419.851C165.912 419.321 168.004 418.646 170.042 417.83C170.622 417.603 171.299 417.192 171.221 416.573C171.12 415.751 169.829 415.654 169.491 414.899C169.431 414.763 169.403 414.615 169.41 414.467C169.417 414.318 169.458 414.174 169.529 414.043C169.713 414.077 169.906 414.116 170.109 414.164C173.624 414.972 175.538 415.291 176.669 418.217Z" fill="black"/>
<path d="M163.299 449.186C158.706 451.285 148.314 449.186 148.314 449.186L143.939 448.929C138.274 448.567 128.732 447.962 125.362 447.677C120.446 447.271 121.655 445.259 121.655 445.259V433.068L145.5 427.023C145.5 427.023 154.926 430.248 157.508 433.068C159.958 435.752 161.375 433.687 165.769 434.461C165.986 434.499 166.213 434.548 166.45 434.601C170.603 435.568 172.855 435.931 174.185 439.374C174.454 440.097 174.669 440.839 174.827 441.593C176.026 447.135 167.891 447.092 163.299 449.186Z" fill="#A36468"/>
<path opacity="0.1" d="M174.175 439.374C173.321 439.908 172.423 440.369 171.492 440.752C168.365 442.179 165.387 443.92 162.226 445.269C159.064 446.618 155.656 447.576 152.229 447.324C150.441 447.193 148.608 446.744 146.912 447.266C145.849 447.68 144.848 448.24 143.939 448.93C138.274 448.567 128.732 447.962 125.362 447.677C120.446 447.271 121.655 445.259 121.655 445.259V443.837C121.855 443.805 122.057 443.782 122.259 443.77C123.437 443.748 124.61 443.923 125.73 444.287L133.121 446.28C133.327 445.511 133.687 444.793 134.18 444.168C134.673 443.544 135.288 443.026 135.987 442.648C137.396 441.896 138.979 441.533 140.575 441.594C144.403 441.647 148.024 443.46 151.847 443.644C152.912 443.741 153.984 443.563 154.96 443.127C155.487 442.861 155.927 442.479 156.459 442.193C157.276 441.793 158.142 441.5 159.035 441.323C161.528 440.693 163.976 439.899 166.363 438.944C167.045 438.673 167.843 438.189 167.751 437.464C167.63 436.497 166.112 436.381 165.711 435.491C165.643 435.33 165.612 435.156 165.621 434.982C165.629 434.808 165.676 434.638 165.759 434.485C165.977 434.524 166.204 434.572 166.441 434.625C170.593 435.554 172.846 435.931 174.175 439.374Z" fill="black"/>
<path d="M152.905 365.53L151.614 395.914C151.614 395.914 149.681 402.118 150.73 403.893C151.779 405.668 153.548 407.438 152.905 408.487C152.262 409.537 144.528 420.882 142.029 416.529C139.53 412.177 137.064 393.317 137.064 393.317L139.37 370.023L152.905 365.53Z" fill="#444053"/>
<path d="M158.503 289.83L162.09 294.627V336.351C162.09 336.351 163.138 347.473 162.09 349.77C161.041 352.067 155.723 356.661 155.723 356.661L151.252 333.691L152.219 309.391L158.503 289.83Z" fill="#444053"/>
<path opacity="0.1" d="M152.905 365.53L151.614 395.914C151.614 395.914 149.681 402.118 150.73 403.893C151.779 405.668 153.548 407.438 152.905 408.487C152.262 409.537 144.528 420.882 142.029 416.529C139.53 412.177 137.064 393.317 137.064 393.317L139.37 370.023L152.905 365.53Z" fill="black"/>
<path opacity="0.1" d="M158.503 289.83L162.09 294.627V336.351C162.09 336.351 163.138 347.473 162.09 349.77C161.041 352.067 155.723 356.661 155.723 356.661L151.252 333.691L152.219 309.391L158.503 289.83Z" fill="black"/>
<path d="M162.09 272.033V294.602L158.063 312.171C158.063 312.171 156.773 354.567 157.899 359.722C159.025 364.877 154.032 369.718 154.032 369.718C154.032 369.718 151.131 370.042 151.131 372.295C151.131 374.549 146.298 381 146.298 381L146.457 393.573C146.457 393.573 148.555 417.109 145.331 421.621C142.107 426.133 146.457 426.781 146.457 426.781C142.43 439.998 123.095 436.937 121.35 435.486C119.605 434.035 121.35 405.503 121.35 405.503C121.35 405.503 125.671 361.981 129.055 360.046C132.439 358.112 129.219 355.694 130.346 352.792C131.472 349.891 129.219 341.994 129.219 341.994C129.219 341.994 128.253 332.641 125.836 328.129C123.419 323.618 123.738 311.204 123.738 311.204C123.738 311.204 116.97 302.175 114.96 298.631C112.949 295.086 111.653 285.898 112.137 278.963C112.465 274.277 114.926 267.454 116.487 263.527C117.236 261.646 117.778 260.427 117.778 260.427L118.237 260.548L144.64 267.463L162.09 272.033Z" fill="#444053"/>
<path opacity="0.1" d="M164.545 164.193C162.051 164.909 159.668 167.366 157.594 170.35H157.053C154.013 170.352 151.027 169.551 148.396 168.029C145.764 166.506 143.582 164.316 142.068 161.679C141.435 160.586 140.926 159.427 140.55 158.221C142.043 154.425 143.15 151.127 143.15 151.127C143.15 151.127 172.159 162.017 164.545 164.193Z" fill="black"/>
<path d="M174.334 152.104C174.338 154.75 173.735 157.362 172.572 159.738C171.408 162.114 169.715 164.191 167.622 165.81C165.53 167.428 163.094 168.544 160.502 169.072C157.91 169.601 155.232 169.526 152.673 168.856C150.115 168.185 147.744 166.936 145.744 165.205C143.744 163.473 142.168 161.306 141.138 158.869C140.107 156.432 139.649 153.791 139.799 151.149C139.95 148.508 140.704 145.936 142.005 143.632C142.529 142.695 143.14 141.811 143.832 140.991C144.972 139.633 146.312 138.455 147.805 137.5C150.328 135.896 153.224 134.974 156.21 134.824C159.196 134.675 162.169 135.303 164.839 136.647C167.51 137.99 169.786 140.004 171.446 142.492C173.106 144.979 174.093 147.854 174.31 150.837C174.319 151.263 174.334 151.683 174.334 152.104Z" fill="#EFB7B9"/>
<path opacity="0.1" d="M159.813 193.489L159.755 194.021L151.717 181.448C150.875 183.436 150.407 184.765 150.407 184.765C150.407 184.765 131.313 170.384 134.334 169.416C135.349 169.092 136.683 166.916 138.003 164.174L138.167 163.826C139.569 168.004 147.714 176.356 151.103 179.702C151.494 180.089 151.818 180.408 152.069 180.64L152.587 181.124L152.857 181.395C154.09 182.667 159.291 188.276 159.813 193.489Z" fill="black"/>
<path d="M165.822 236.151L164.942 264.475L164.787 269.519C164.787 269.519 154.365 268.552 144.64 267.488C136.809 266.632 129.427 265.708 128.292 265.167C126.841 264.485 123.733 263.958 121.282 263.624C119.388 263.368 117.899 263.232 117.899 263.232C117.899 263.232 117.343 263.397 116.487 263.551C114.621 263.89 111.344 264.166 109.435 262.507C106.993 260.384 113.408 252.671 115.008 250.819L115.361 250.417L114.757 244.832L113.186 230.348C113.186 230.348 112.219 222.006 110.769 217.533C110.381 216.261 110.101 214.959 109.932 213.64C109.394 209.555 109.67 205.403 110.745 201.425C111.204 199.735 111.495 198.003 111.615 196.255C111.856 191.782 125.512 174.494 128.896 172.922C130.418 172.212 131.643 170.99 132.357 169.47C132.593 168.991 132.769 168.486 132.884 167.966C134.334 161.679 138.003 164.174 138.003 164.174C138.887 169.092 152.582 182.11 152.582 182.11L152.852 182.381C154.211 183.774 160.263 190.312 159.833 195.893C159.747 197.97 160.057 200.044 160.746 202.005C163.532 210.78 165.133 219.887 165.508 229.086L165.822 236.151Z" fill="#DCE6F2"/>
<path opacity="0.1" d="M146.418 202.518C146.418 202.518 143.035 210.739 140.497 212.069C137.959 213.399 147.627 214.874 146.418 202.518Z" fill="black"/>
<path opacity="0.1" d="M148.956 217.872C148.956 217.872 141.222 218.838 141.222 220.289C141.222 221.739 148.956 217.872 148.956 217.872Z" fill="black"/>
<path opacity="0.1" d="M157.053 227.302C157.053 227.302 145.814 251.239 142.672 251.965C139.53 252.69 157.053 227.302 157.053 227.302Z" fill="black"/>
<path opacity="0.1" d="M152.369 183.324L143.073 187.367L131.854 170.412C132.089 169.934 132.266 169.429 132.38 168.908C133.831 162.622 137.499 165.117 137.499 165.117C138.384 170.035 152.078 183.053 152.078 183.053L152.369 183.324Z" fill="black"/>
<path d="M152.852 182.357L143.556 186.4L132.337 169.445C132.573 168.967 132.75 168.462 132.864 167.941C134.314 161.655 137.983 164.15 137.983 164.15C138.867 169.068 152.562 182.086 152.562 182.086L152.852 182.357Z" fill="#DCE6F2"/>
<path opacity="0.1" d="M164.787 269.519C164.787 269.519 154.365 268.552 144.639 267.488L162.09 272.058V277.377C161.326 278.069 160.664 278.427 160.233 278.243C158.223 277.397 141.812 274.737 141.812 274.737C141.812 274.737 132.279 269.901 121.993 264.098C121.743 263.959 121.501 263.808 121.268 263.643C120.068 262.829 119.035 261.793 118.222 260.592C116.322 257.84 115.394 254.305 114.993 250.838C114.768 248.851 114.684 246.85 114.742 244.851C114.792 242.584 114.998 240.324 115.361 238.086C114.366 229.417 113.882 220.697 113.91 211.972C114.031 198.432 126.72 193.596 126.72 193.596C150.044 191.54 142.812 229.26 142.812 229.26C142.812 229.26 141.464 239.899 141.096 240.987C140.729 242.075 139.409 243.889 139.588 246.428C139.767 248.966 144.224 252.003 144.224 252.003C144.224 252.003 148.574 254.044 150.368 257.067C151.673 259.296 160.151 262.318 164.942 264.475L164.787 269.519Z" fill="black"/>
<path opacity="0.1" d="M172.598 141.368C172.607 142.165 172.442 142.953 172.115 143.68C171.867 144.272 171.58 144.847 171.255 145.401C170.746 146.42 170.024 147.317 169.137 148.032C168.021 148.83 166.609 149.052 165.27 149.376C163.931 149.7 162.539 150.218 161.775 151.359C161.361 152.093 161.085 152.896 160.958 153.729C160.83 154.561 160.498 155.348 159.992 156.021C159.728 156.349 159.363 156.58 158.953 156.678C158.544 156.776 158.113 156.736 157.729 156.562C157.325 156.29 157.019 155.895 156.854 155.436C156.303 154.193 156.163 152.815 155.941 151.475C155.718 150.135 155.404 148.757 154.583 147.679C153.761 146.6 152.306 145.89 151.015 146.31C150.583 146.477 150.189 146.729 149.857 147.051C149.525 147.373 149.261 147.76 149.082 148.187C148.724 149.041 148.479 149.938 148.352 150.856C147.752 154.138 147.045 157.401 146.23 160.644C146.205 160.777 146.15 160.902 146.07 161.011C145.942 161.139 145.768 161.212 145.587 161.214C144.504 161.36 143.465 160.6 142.372 160.683C142.26 160.69 142.148 160.708 142.039 160.736C140.272 157.665 139.492 154.125 139.805 150.596C140.117 147.066 141.506 143.718 143.784 141.005L143.871 140.981C144.597 140.723 145.258 140.307 145.804 139.763C146.502 139.064 147.148 138.316 147.738 137.524L148.124 137.04C149.236 135.701 150.501 134.498 151.895 133.457C152.275 133.145 152.712 132.908 153.181 132.76C153.582 132.682 153.993 132.669 154.399 132.721C156.068 132.922 157.751 132.985 159.431 132.91C160.601 132.726 161.781 132.607 162.964 132.552C166.024 132.639 168.635 134.801 170.568 137.171C171.607 138.384 172.536 139.782 172.598 141.368Z" fill="black"/>
<path d="M139.747 144.091C139.075 145.194 137.862 145.943 137.408 147.152C136.741 148.907 137.867 151.093 136.832 152.66C136.489 153.187 135.924 153.579 135.73 154.183C135.402 155.204 136.301 156.292 136.069 157.341C135.837 158.391 134.454 159.276 134.822 160.301C135.039 160.748 135.419 161.094 135.885 161.268C136.617 161.688 137.46 161.876 138.302 161.805C139.622 161.587 140.603 160.291 141.942 160.194C143.029 160.117 144.069 160.871 145.152 160.731C145.333 160.725 145.505 160.651 145.635 160.523C145.717 160.415 145.772 160.289 145.794 160.156C146.607 156.916 147.315 153.653 147.921 150.368C148.045 149.45 148.289 148.553 148.646 147.699C148.827 147.272 149.091 146.887 149.424 146.565C149.756 146.243 150.149 145.99 150.58 145.822C151.871 145.406 153.321 146.112 154.147 147.191C154.974 148.269 155.288 149.647 155.511 150.987C155.733 152.326 155.873 153.705 156.419 154.947C156.585 155.408 156.893 155.805 157.299 156.079C158.024 156.5 159.001 156.166 159.556 155.537C160.066 154.865 160.398 154.075 160.523 153.24C160.649 152.409 160.926 151.608 161.34 150.876C162.104 149.734 163.501 149.217 164.835 148.893C166.169 148.569 167.576 148.342 168.702 147.544C169.587 146.83 170.309 145.934 170.819 144.918C171.535 143.67 172.202 142.316 172.144 140.88C172.081 139.313 171.153 137.916 170.162 136.697C168.228 134.327 165.613 132.166 162.553 132.083C161.37 132.133 160.19 132.253 159.02 132.441C157.34 132.517 155.657 132.452 153.988 132.248C153.582 132.199 153.171 132.214 152.77 132.291C152.3 132.435 151.864 132.672 151.489 132.988C150.094 134.028 148.826 135.229 147.713 136.566C146.996 137.518 146.218 138.423 145.384 139.274C144.837 139.82 144.177 140.237 143.45 140.498C142.967 140.633 142.483 140.537 142.024 140.687C140.598 141.136 140.409 142.998 139.747 144.091Z" fill="#965D7B"/>
<path opacity="0.1" d="M186.298 157.24C182.431 157.951 179.226 154.822 177.452 152.539C176.907 151.846 176.411 151.116 175.968 150.354L189.242 152.858L189.778 152.96C189.778 152.96 192.219 156.157 186.298 157.24Z" fill="black"/>
<g opacity="0.1">
<path opacity="0.1" d="M136.07 155.957C136.124 155.325 136.028 154.689 135.789 154.101C135.789 154.149 135.745 154.198 135.731 154.246C135.523 154.894 135.803 155.566 135.983 156.238C136.021 156.147 136.05 156.054 136.07 155.957Z" fill="black"/>
<path opacity="0.1" d="M137.219 148.042C137.169 148.71 137.182 149.382 137.258 150.048C137.307 149.379 137.294 148.708 137.219 148.042Z" fill="black"/>
<path opacity="0.1" d="M170.791 143.52C170.282 144.539 169.56 145.436 168.673 146.151C167.557 146.949 166.15 147.171 164.806 147.495C163.462 147.819 162.075 148.337 161.311 149.478C160.898 150.212 160.621 151.015 160.494 151.847C160.368 152.682 160.036 153.471 159.528 154.144C158.972 154.773 157.995 155.112 157.27 154.686C156.864 154.412 156.556 154.015 156.39 153.554C155.844 152.312 155.699 150.938 155.482 149.594C155.264 148.249 154.94 146.876 154.118 145.798C153.297 144.719 151.842 144.008 150.551 144.429C150.119 144.596 149.726 144.848 149.394 145.171C149.062 145.493 148.798 145.879 148.617 146.305C148.26 147.16 148.016 148.057 147.892 148.975C147.29 152.26 146.581 155.523 145.766 158.763C145.743 158.896 145.688 159.022 145.606 159.13C145.477 159.258 145.304 159.332 145.123 159.338C144.04 159.478 143.001 158.724 141.913 158.801C140.574 158.898 139.593 160.194 138.273 160.407C137.431 160.482 136.587 160.295 135.856 159.87C135.52 159.725 135.219 159.511 134.971 159.241C134.858 159.403 134.783 159.589 134.752 159.784C134.721 159.979 134.735 160.179 134.793 160.368C135.005 160.818 135.388 161.166 135.856 161.335C136.587 161.76 137.431 161.948 138.273 161.872C139.593 161.659 140.574 160.363 141.913 160.267C143.001 160.189 144.04 160.944 145.123 160.803C145.304 160.797 145.477 160.723 145.606 160.595C145.688 160.488 145.743 160.362 145.766 160.228C146.578 157.004 147.287 153.741 147.892 150.44C148.016 149.522 148.26 148.625 148.617 147.771C148.798 147.344 149.062 146.958 149.394 146.636C149.726 146.314 150.119 146.062 150.551 145.894C151.842 145.474 153.292 146.185 154.118 147.263C154.945 148.341 155.259 149.72 155.482 151.059C155.704 152.399 155.844 153.777 156.39 155.02C156.556 155.481 156.864 155.877 157.27 156.151C157.995 156.572 158.972 156.238 159.528 155.61C160.036 154.937 160.368 154.147 160.494 153.313C160.621 152.48 160.898 151.677 161.311 150.943C162.075 149.802 163.472 149.289 164.806 148.96C166.14 148.632 167.547 148.414 168.673 147.616C169.56 146.901 170.282 146.004 170.791 144.985C171.506 143.742 172.173 142.388 172.115 140.952C172.106 140.768 172.086 140.583 172.057 140.401C171.824 141.508 171.395 142.564 170.791 143.52Z" fill="black"/>
</g>
<path opacity="0.1" d="M172.134 143.665C173.374 145.87 174.109 148.323 174.285 150.847C169.978 148.429 165.928 145.774 163.883 144.85C160.32 143.24 146.998 143.482 141.99 143.631C142.514 142.695 143.126 141.811 143.817 140.991C144.962 139.631 146.307 138.454 147.805 137.5C149.79 136.239 152.011 135.397 154.333 135.025C156.654 134.652 159.027 134.758 161.306 135.334C163.586 135.91 165.724 136.945 167.59 138.376C169.456 139.807 171.01 141.603 172.159 143.656L172.134 143.665Z" fill="black"/>
<path opacity="0.1" d="M187.506 155.189C185.181 155.905 181.387 154.522 177.452 152.539C176.907 151.846 176.411 151.116 175.968 150.354L189.242 152.858C190.121 153.458 190.344 154.314 187.506 155.189Z" fill="black"/>
<path d="M158.083 126.899C158.083 126.899 145.394 126.174 141.826 133.065L141.251 139.173L140.284 139.066L140.091 143.22C140.091 143.22 159.484 142.374 163.898 144.367C168.311 146.359 182.025 156.398 187.521 154.706C193.017 153.013 187.037 151.441 187.037 151.441C187.037 151.441 179.472 148.235 179.472 145.721C179.472 143.206 177.597 129.922 158.083 126.899Z" fill="#444053"/>
<path opacity="0.1" d="M133.608 353.315C133.608 353.315 141.705 361.173 145.21 360.569C145.21 360.569 135.3 359.722 133.608 353.315Z" fill="black"/>
<path opacity="0.1" d="M131.917 356.956C131.917 356.956 132.642 360.999 134.576 360.602C136.509 360.206 131.917 356.956 131.917 356.956Z" fill="black"/>
<path opacity="0.1" d="M144.606 424.523C144.606 424.523 133.111 433.469 135.049 433.711C136.988 433.953 144.606 424.523 144.606 424.523Z" fill="black"/>
<path d="M159.982 246.964L197.203 240.905V276.158L161.839 274.306L159.982 246.964Z" fill="#197C93"/>
<path opacity="0.05" d="M159.982 246.964L197.203 240.905V276.158L161.839 274.306L159.982 246.964Z" fill="black"/>
<path d="M197.203 240.905L241.839 244.246L239.369 274.925L197.203 276.158V240.905Z" fill="#197C93"/>
<path opacity="0.1" d="M197.203 240.905L241.839 244.246L239.369 274.925L197.203 276.158V240.905Z" fill="black"/>
<path d="M210.927 230.145L197.203 240.905L241.839 244.246L249.134 233.235L210.927 230.145Z" fill="#197C93"/>
<path d="M146.505 235.213L180.013 231.132L197.203 240.905L159.982 246.964L146.505 235.213Z" fill="#197C93"/>
<path d="M205.363 250.059V298.258L187.927 296.469L180.343 295.695L178.032 295.454L170.453 294.675L159.982 293.602V246.964L197.199 249.498L205.363 250.059Z" fill="#197C93"/>
<path d="M241.839 244.247V291.251L227.864 293.935L221.068 295.241L205.362 298.258V250.059L241.839 244.247Z" fill="#197C93"/>
<path opacity="0.05" d="M241.839 244.247V291.251L227.864 293.935L221.068 295.241L205.362 298.258V250.059L241.839 244.247Z" fill="black"/>
<path d="M146.505 257.11L159.982 246.964L205.362 250.059L198.682 261.317L146.505 257.11Z" fill="#197C93"/>
<path opacity="0.1" d="M146.505 257.11L159.982 246.964L205.362 250.059L198.682 261.317L146.505 257.11Z" fill="white"/>
<path d="M241.839 244.247L205.362 250.059L217.234 260.698L256.307 254.141L241.839 244.247Z" fill="#197C93"/>
<path opacity="0.1" d="M241.839 244.247L205.362 250.059L217.234 260.698L256.307 254.141L241.839 244.247Z" fill="white"/>
<path opacity="0.1" d="M227.865 293.935L221.068 295.241V285.197L227.435 283.591L227.865 293.935Z" fill="white"/>
<path opacity="0.1" d="M187.927 289.825V296.469L180.343 295.695V289.825H187.927Z" fill="white"/>
<path opacity="0.1" d="M178.032 291.918V295.453L170.452 294.675V291.918H178.032Z" fill="white"/>
<path opacity="0.1" d="M200.8 286.3C195.604 292.949 178.443 288.355 178.443 288.355L165.691 275.046L163.961 273.243L167.345 266.956C167.345 266.956 168.311 267.275 169.926 267.836C178.472 270.825 205.175 280.704 200.8 286.3Z" fill="black"/>
<path d="M200.317 285.332C195.12 291.982 177.96 287.387 177.96 287.387L165.208 274.079L163.478 272.275L166.861 265.989C166.861 265.989 167.828 266.308 169.443 266.869C177.989 269.857 204.691 279.737 200.317 285.332Z" fill="#EFB7B9"/>
<path opacity="0.1" d="M169.423 266.869C168.717 268.9 166.924 271.908 165.189 274.079L163.458 272.275L166.842 265.989C166.842 265.989 167.813 266.308 169.423 266.869Z" fill="black"/>
<path d="M127.204 191.661C127.204 191.661 114.515 196.497 114.394 210.038C114.365 218.763 114.849 227.483 115.844 236.152C115.844 236.152 112.219 256.341 122.491 262.144C132.763 267.947 142.309 272.783 142.309 272.783C142.309 272.783 158.721 275.443 160.736 276.289C162.752 277.136 169.756 266.255 168.669 264.441C167.581 262.628 152.639 258.155 150.865 255.132C149.091 252.11 144.722 250.074 144.722 250.074C144.722 250.074 140.265 247.032 140.086 244.493C139.907 241.955 141.222 240.141 141.594 239.053C141.966 237.965 143.315 227.326 143.315 227.326C143.315 227.326 150.527 189.582 127.204 191.661Z" fill="#DCE6F2"/>
<path opacity="0.1" d="M133.004 236.49C133.004 236.49 115.844 238.424 117.173 244.469C117.173 244.469 123.694 238.371 133.004 236.49Z" fill="black"/>
<path opacity="0.1" d="M133.004 238.908C133.004 238.908 123.264 246.041 125.052 246.524C126.841 247.008 133.004 238.908 133.004 238.908Z" fill="black"/>
<path opacity="0.1" d="M137.355 241.809C137.355 241.809 134.575 246.809 136.146 246.548C137.717 246.287 137.355 241.809 137.355 241.809Z" fill="black"/>
<path d="M316.025 133.35C316.025 133.35 297.656 132.243 299.802 145.135C299.802 145.135 299.372 147.413 301.436 148.448C301.436 148.448 301.47 147.481 303.321 147.815C303.981 147.926 304.651 147.958 305.318 147.911C306.222 147.851 307.081 147.496 307.764 146.901C307.764 146.901 312.931 144.768 314.942 136.315C314.942 136.315 316.431 134.468 316.392 133.994L313.289 135.323C313.289 135.323 314.348 137.563 313.511 139.424C313.511 139.424 313.415 135.406 312.815 135.498C312.694 135.498 311.206 136.276 311.206 136.276C311.206 136.276 313.028 140.174 311.65 143.013C311.65 143.013 312.172 138.206 310.635 136.557L308.45 137.833C308.45 137.833 310.582 141.862 309.137 145.15C309.137 145.15 309.509 140.106 307.991 138.143L306.009 139.685C306.009 139.685 308.015 143.661 306.792 146.388C306.792 146.388 306.633 140.517 305.579 140.072C305.579 140.072 303.848 141.6 303.587 142.229C303.587 142.229 304.955 145.131 304.105 146.635C304.105 146.635 303.582 142.722 303.138 142.703C303.138 142.703 301.412 145.295 301.233 147.055C301.317 145.414 301.828 143.824 302.717 142.442C301.723 142.63 300.805 143.106 300.078 143.81C300.078 143.81 300.344 141.978 303.143 141.818C303.143 141.818 304.593 139.85 304.95 139.729C304.95 139.729 302.166 139.497 300.479 140.246C300.479 140.246 301.963 138.52 305.463 139.279L307.396 137.683C307.396 137.683 303.732 137.2 302.176 137.737C302.176 137.737 303.964 136.208 307.923 137.321L310.05 136.049C310.05 136.049 306.928 135.372 305.066 135.618C305.066 135.618 307.029 134.559 310.674 135.706L312.196 135.024C312.196 135.024 309.905 134.574 309.238 134.501C308.571 134.429 308.532 134.245 308.532 134.245C309.982 134.004 311.47 134.171 312.83 134.729C312.83 134.729 316.093 133.554 316.025 133.35Z" fill="#197C93"/>
<path opacity="0.1" d="M371.837 197.832C371.837 197.832 353.469 196.724 355.615 209.617C355.615 209.617 355.185 211.895 357.249 212.93C357.249 212.93 357.283 211.962 359.139 212.296C359.798 212.407 360.468 212.439 361.135 212.393C362.028 212.328 362.876 211.975 363.552 211.387C363.552 211.387 368.724 209.249 370.735 200.796C370.735 200.796 372.219 198.954 372.161 198.48L369.058 199.805C369.058 199.805 370.116 202.044 369.285 203.906C369.285 203.906 369.184 199.887 368.589 199.979C368.468 199.979 366.974 200.758 366.974 200.758C366.974 200.758 368.802 204.66 367.424 207.494C367.424 207.494 367.946 202.687 366.404 201.038L364.243 202.3C364.243 202.3 366.375 206.329 364.93 209.617C364.93 209.617 365.302 204.573 363.784 202.61L361.807 204.157C361.807 204.157 363.808 208.127 362.59 210.855C362.59 210.855 362.431 204.984 361.377 204.539C361.377 204.539 359.646 206.067 359.38 206.696C359.38 206.696 360.753 209.598 359.903 211.102C359.903 211.102 359.38 207.189 358.936 207.17C358.936 207.17 357.21 209.762 357.031 211.522C357.118 209.881 357.631 208.291 358.52 206.909C357.524 207.098 356.605 207.573 355.876 208.277C355.876 208.277 356.147 206.445 358.945 206.285C358.945 206.285 360.371 204.317 360.753 204.196C360.753 204.196 357.969 203.964 356.282 204.713C356.282 204.713 357.766 202.987 361.261 203.77L363.194 202.175C363.194 202.175 359.525 201.691 357.974 202.228C357.974 202.228 359.762 200.7 363.721 201.812L365.848 200.54C365.848 200.54 362.721 199.868 360.86 200.11C360.86 200.11 362.827 199.051 366.472 200.197L367.994 199.515C367.994 199.515 365.703 199.065 365.031 198.993C364.359 198.92 364.325 198.736 364.325 198.736C365.777 198.495 367.266 198.662 368.628 199.22C368.628 199.22 371.895 198.035 371.837 197.832Z" fill="#197C93"/>
<path opacity="0.1" d="M260.246 186.386C260.246 186.386 264.476 168.449 251.405 168.386C251.405 168.386 249.235 167.574 247.867 169.431C247.867 169.431 248.8 169.629 248.166 171.399C247.947 172.025 247.801 172.674 247.731 173.334C247.638 174.232 247.84 175.137 248.307 175.911C248.307 175.911 249.53 181.376 257.491 184.799C257.491 184.799 259.057 186.579 259.531 186.598L258.757 183.315C258.757 183.315 256.37 183.977 254.678 182.831C254.678 182.831 258.656 183.416 258.661 182.831C258.661 182.71 258.177 181.11 258.177 181.11C258.177 181.11 254.025 182.241 251.463 180.399C251.463 180.399 256.108 181.733 257.999 180.5L257.128 178.121C257.128 178.121 252.778 179.538 249.8 177.55C249.8 177.55 254.707 178.779 256.901 177.618L255.717 175.403C255.717 175.403 251.463 176.699 248.983 175.031C248.983 175.031 254.784 175.872 255.412 174.915C255.412 174.915 254.204 172.947 253.629 172.579C253.629 172.579 250.554 173.44 249.201 172.342C249.201 172.342 253.14 172.492 253.232 172.076C253.232 172.076 250.975 169.934 249.254 169.45C250.858 169.816 252.339 170.592 253.551 171.704C253.534 170.69 253.221 169.704 252.652 168.865C252.652 168.865 254.412 169.445 254.102 172.25C254.102 172.25 255.794 173.991 255.847 174.388C255.847 174.388 256.548 171.684 256.099 169.89C256.099 169.89 257.549 171.651 256.181 174.963L257.418 177.164C257.418 177.164 258.54 173.633 258.255 172.008C258.255 172.008 259.458 174.03 257.684 177.744L258.579 180.06C258.579 180.06 259.773 177.091 259.85 175.224C259.85 175.224 260.56 177.342 258.806 180.742L259.221 182.357C259.221 182.357 260.053 180.176 260.237 179.528C260.42 178.88 260.609 178.875 260.609 178.875C260.601 180.347 260.185 181.787 259.405 183.034C259.405 183.034 260.038 186.41 260.246 186.386Z" fill="#197C93"/>
<path opacity="0.1" d="M220.019 192.498C220.019 192.498 205.266 181.458 199.992 193.417C199.992 193.417 198.382 195.085 199.537 197.082C199.537 197.082 200.089 196.304 201.471 197.595C201.961 198.051 202.503 198.447 203.086 198.775C203.875 199.215 204.787 199.385 205.681 199.259C205.681 199.259 211.173 200.318 217.495 194.365C217.495 194.365 219.753 193.639 219.965 193.214L216.635 192.629C216.635 192.629 216.287 195.08 214.571 196.178C214.571 196.178 216.693 192.764 216.142 192.517C216.031 192.464 214.368 192.276 214.368 192.276C214.368 192.276 213.749 196.541 211.042 198.151C211.042 198.151 214.121 194.423 213.739 192.198L211.211 192.063C211.211 192.063 210.781 196.604 207.765 198.557C207.765 198.557 210.844 194.548 210.665 192.072L208.161 192.276C208.161 192.276 207.654 196.691 205.135 198.296C205.135 198.296 208.224 193.306 207.591 192.358C207.591 192.358 205.304 192.682 204.739 193.059C204.739 193.059 204.299 196.222 202.752 197.024C202.752 197.024 204.468 193.47 204.12 193.223C204.12 193.223 201.254 194.437 200.127 195.82C201.102 194.496 202.405 193.449 203.907 192.783C202.972 192.395 201.944 192.287 200.949 192.474C200.949 192.474 202.177 191.091 204.603 192.498C204.603 192.498 206.875 191.642 207.262 191.748C207.262 191.748 205.063 190.022 203.24 189.722C203.24 189.722 205.435 189.094 207.924 191.657L210.433 191.4C210.433 191.4 207.644 188.982 206.044 188.576C206.044 188.576 208.379 188.281 211.071 191.386L213.546 191.497C213.546 191.497 211.308 189.214 209.621 188.392C209.621 188.392 211.84 188.586 214.257 191.55L215.905 191.816C215.905 191.816 214.237 190.182 213.715 189.756C213.193 189.331 213.266 189.152 213.266 189.152C214.61 189.747 215.764 190.705 216.596 191.918C216.596 191.918 219.956 192.696 220.019 192.498Z" fill="#197C93"/>
<path opacity="0.1" d="M269.136 89.9245C269.136 89.9245 254.383 78.8793 249.109 90.8433C249.109 90.8433 247.499 92.5117 248.655 94.5089C248.655 94.5089 249.206 93.7303 250.588 95.0215C251.08 95.4749 251.624 95.8693 252.208 96.1966C252.997 96.6367 253.909 96.8066 254.803 96.6802C254.803 96.6802 260.295 97.7392 266.617 91.7815C266.617 91.7815 268.875 91.0609 269.083 90.6305L265.752 90.055C265.752 90.055 265.409 92.5068 263.688 93.6046C263.688 93.6046 265.815 90.1905 265.264 89.9438C265.153 89.8906 263.49 89.702 263.49 89.702C263.49 89.702 262.852 93.9769 260.145 95.5776C260.145 95.5776 263.219 91.8492 262.842 89.6247L260.314 89.4893C260.314 89.4893 259.879 94.0301 256.867 95.979C256.867 95.979 259.947 91.9701 259.768 89.4941L257.269 89.6972C257.269 89.6972 256.756 94.1172 254.238 95.7227C254.238 95.7227 257.332 90.7321 256.698 89.7842C256.698 89.7842 254.412 90.1082 253.846 90.4854C253.846 90.4854 253.406 93.6481 251.86 94.4509C251.86 94.4509 253.576 90.8965 253.228 90.645C253.228 90.645 250.361 91.8637 249.235 93.2467C250.208 91.9211 251.511 90.8739 253.015 90.2098C252.079 89.8181 251.048 89.7105 250.052 89.9003C250.052 89.9003 251.284 88.5172 253.711 89.9245C253.711 89.9245 255.983 89.0637 256.37 89.1749C256.37 89.1749 254.17 87.4485 252.348 87.1439C252.348 87.1439 254.538 86.52 257.027 89.0782L259.536 88.8219C259.536 88.8219 256.751 86.404 255.147 85.9929C255.147 85.9929 257.481 85.7028 260.179 88.8074L262.654 88.9138C262.654 88.9138 260.416 86.6313 258.724 85.814C258.724 85.814 260.947 86.0074 263.364 88.9718L265.008 89.2378C265.008 89.2378 263.335 87.6226 262.813 87.2067C262.291 86.7908 262.364 86.6071 262.364 86.6071C263.709 87.2022 264.862 88.1599 265.694 89.3732C265.694 89.3732 269.054 90.1082 269.136 89.9245Z" fill="#197C93"/>
<path opacity="0.1" d="M325.509 103.914C325.509 103.914 319.612 86.452 308.489 93.3141C308.489 93.3141 306.217 93.7977 306.038 96.0754C306.038 96.0754 306.932 95.7465 307.329 97.5842C307.476 98.2378 307.698 98.8723 307.991 99.475C308.39 100.286 309.042 100.946 309.847 101.356C309.847 101.356 313.772 105.346 322.357 104.026C322.357 104.026 324.624 104.712 325.04 104.475L322.623 102.101C322.623 102.101 320.951 103.924 318.911 103.851C318.911 103.851 322.599 102.246 322.294 101.729C322.232 101.627 320.97 100.529 320.97 100.529C320.97 100.529 318.041 103.687 314.899 103.479C314.899 103.479 319.544 102.154 320.491 100.094L318.49 98.5513C318.49 98.5513 315.561 102.043 311.969 101.936C311.969 101.936 316.803 100.384 318.026 98.237L315.851 96.9845C315.851 96.9845 312.951 100.336 309.944 100.229C309.944 100.229 315.319 97.8743 315.334 96.7331C315.334 96.7331 313.27 95.703 312.588 95.6933C312.588 95.6933 310.432 98.0484 308.721 97.8356C308.721 97.8356 312.143 95.8771 311.998 95.4757C311.998 95.4757 308.953 94.8519 307.237 95.3548C308.789 94.8142 310.455 94.6892 312.071 94.9921C311.519 94.1405 310.731 93.4683 309.804 93.0578C309.804 93.0578 311.602 92.6177 312.806 95.1517C312.806 95.1517 315.164 95.7369 315.416 96.0415C315.416 96.0415 314.584 93.377 313.255 92.0906C313.255 92.0906 315.416 92.8208 316.006 96.3559L318.219 97.5648C318.219 97.5648 317.306 93.9814 316.204 92.729C316.204 92.729 318.297 93.8122 318.751 97.8985L320.733 99.3928C320.733 99.3928 320.182 96.2398 319.254 94.6053C319.254 94.6053 320.975 96.027 321.284 99.8425L322.488 100.993C322.488 100.993 322.043 98.7013 321.859 98.0533C321.676 97.4052 321.826 97.3617 321.826 97.3617C322.594 98.6162 323.001 100.059 323 101.53C323 101.53 325.34 104.04 325.509 103.914Z" fill="#197C93"/>
<path opacity="0.1" d="M287.021 104.775C287.021 104.775 268.701 102.734 270.214 115.738C270.214 115.738 269.668 117.992 271.664 119.123C271.664 119.123 271.746 118.156 273.598 118.591C274.252 118.732 274.92 118.799 275.589 118.79C276.493 118.773 277.367 118.462 278.079 117.905C278.079 117.905 283.352 116.033 285.813 107.691C285.813 107.691 287.389 105.926 287.355 105.447L284.189 106.618C284.189 106.618 285.155 108.905 284.189 110.723C284.189 110.723 284.29 106.705 283.705 106.768C283.584 106.768 282.057 107.464 282.057 107.464C282.057 107.464 283.681 111.453 282.163 114.234C282.163 114.234 282.927 109.456 281.472 107.735L279.224 108.895C279.224 108.895 281.158 113.03 279.538 116.241C279.538 116.241 280.167 111.221 278.75 109.185L276.696 110.636C276.696 110.636 278.494 114.703 277.136 117.368C277.136 117.368 277.276 111.497 276.247 110.999C276.247 110.999 274.439 112.45 274.144 113.049C274.144 113.049 275.367 115.999 274.443 117.474C274.443 117.474 274.12 113.543 273.694 113.504C273.694 113.504 271.838 116.004 271.567 117.769C271.735 116.133 272.328 114.569 273.288 113.233C272.285 113.372 271.344 113.8 270.581 114.466C270.581 114.466 270.939 112.653 273.743 112.633C273.743 112.633 275.265 110.743 275.676 110.641C275.676 110.641 272.906 110.269 271.181 110.931C271.181 110.931 272.752 109.277 276.203 110.24L278.238 108.745C278.238 108.745 274.559 108.001 273.003 108.484C273.003 108.484 274.869 107.034 278.765 108.363L280.955 107.198C280.955 107.198 277.866 106.366 275.995 106.516C275.995 106.516 278.011 105.549 281.593 106.888L283.149 106.284C283.149 106.284 280.882 105.718 280.215 105.612C279.548 105.505 279.524 105.322 279.524 105.322C280.985 105.154 282.464 105.395 283.797 106.018C283.797 106.018 287.055 104.978 287.021 104.775Z" fill="#197C93"/>
<path opacity="0.1" d="M447.313 247.032C447.313 247.032 429.003 244.991 430.516 257.981C430.516 257.981 429.969 260.234 431.966 261.366C431.966 261.366 432.048 260.399 433.899 260.829C434.553 260.975 435.221 261.041 435.891 261.027C436.795 261.013 437.67 260.702 438.38 260.142C438.38 260.142 443.654 258.271 446.09 249.934C446.09 249.934 447.666 248.164 447.632 247.69L444.466 248.855C444.466 248.855 445.433 251.148 444.466 252.966C444.466 252.966 444.568 248.942 443.983 249.01C443.862 249.01 442.334 249.702 442.334 249.702C442.334 249.702 443.959 253.691 442.441 256.472C442.441 256.472 443.205 251.699 441.75 249.972L439.502 251.138C439.502 251.138 441.435 255.273 439.821 258.484C439.821 258.484 440.444 253.464 439.028 251.423L436.974 252.874C436.974 252.874 438.772 256.941 437.414 259.601C437.414 259.601 437.554 253.73 436.524 253.237C436.524 253.237 434.721 254.687 434.421 255.287C434.421 255.287 435.649 258.237 434.721 259.712C434.721 259.712 434.397 255.78 433.972 255.742C433.972 255.742 432.116 258.242 431.845 260.007C432.013 258.37 432.606 256.806 433.566 255.471C432.562 255.607 431.621 256.036 430.859 256.704C430.859 256.704 431.217 254.886 434.02 254.866C434.02 254.866 435.548 252.975 435.954 252.879C435.954 252.879 433.184 252.502 431.458 253.164C431.458 253.164 433.029 251.515 436.485 252.477L438.516 250.983C438.516 250.983 434.881 250.296 433.3 250.77C433.3 250.77 435.166 249.32 439.062 250.645L441.252 249.484C441.252 249.484 438.163 248.652 436.292 248.802C436.292 248.802 438.308 247.835 441.89 249.174L443.446 248.565C443.446 248.565 441.179 247.999 440.512 247.898C439.845 247.796 439.821 247.608 439.821 247.608C441.282 247.437 442.761 247.676 444.094 248.299C444.094 248.299 447.362 247.24 447.313 247.032Z" fill="#197C93"/>
<path opacity="0.1" d="M475.306 264.141C475.306 264.141 456.996 262.106 458.509 275.09C458.509 275.09 457.967 277.343 459.959 278.475C459.959 278.475 460.041 277.508 461.892 277.943C462.545 278.085 463.212 278.15 463.879 278.136C464.779 278.118 465.649 277.809 466.359 277.256C466.359 277.256 471.628 275.385 474.064 267.043C474.064 267.043 475.645 265.278 475.606 264.799L472.44 265.965C472.44 265.965 473.407 268.257 472.44 270.075C472.44 270.075 472.541 266.056 471.957 266.119C471.836 266.119 470.308 266.811 470.308 266.811C470.308 266.811 471.932 270.8 470.415 273.581C470.415 273.581 471.178 268.808 469.723 267.086L467.476 268.247C467.476 268.247 469.409 272.382 467.795 275.593C467.795 275.593 468.418 270.573 467.002 268.537L464.947 269.988C464.947 269.988 466.746 274.055 465.392 276.72C465.392 276.72 465.528 270.844 464.498 270.351C464.498 270.351 462.695 271.801 462.395 272.401C462.395 272.401 463.623 275.351 462.695 276.826C462.695 276.826 462.371 272.894 461.946 272.856C461.946 272.856 460.089 275.356 459.824 277.121C459.991 275.485 460.582 273.922 461.54 272.585C460.537 272.724 459.596 273.152 458.833 273.818C458.833 273.818 459.195 272 461.999 271.985C461.999 271.985 463.521 270.094 463.932 269.993C463.932 269.993 461.163 269.62 459.437 270.283C459.437 270.283 461.008 268.629 464.464 269.591L466.494 268.097C466.494 268.097 462.859 267.41 461.279 267.884C461.279 267.884 463.144 266.434 467.041 267.763L469.23 266.598C469.23 266.598 466.141 265.766 464.271 265.916C464.271 265.916 466.286 264.949 469.868 266.289L471.425 265.684C471.425 265.684 469.158 265.118 468.496 265.012C467.833 264.905 467.799 264.722 467.799 264.722C469.261 264.554 470.74 264.795 472.073 265.418C472.073 265.418 475.355 264.349 475.306 264.141Z" fill="#197C93"/>
<path opacity="0.1" d="M413.157 120.027C413.157 120.027 398.404 108.987 393.131 120.946C393.131 120.946 391.521 122.615 392.676 124.612C392.676 124.612 393.227 123.833 394.61 125.124C395.099 125.58 395.641 125.976 396.224 126.304C397.014 126.744 397.925 126.914 398.82 126.788C398.82 126.788 404.311 127.847 410.639 121.894C410.639 121.894 412.891 121.169 413.104 120.743L409.783 120.143C409.783 120.143 409.435 122.595 407.719 123.693C407.719 123.693 409.841 120.279 409.29 120.032C409.179 119.979 407.521 119.79 407.521 119.79C407.521 119.79 406.897 124.056 404.19 125.666C404.19 125.666 407.27 121.937 406.888 119.713L404.36 119.578C404.36 119.578 403.929 124.118 400.913 126.072C400.913 126.072 403.997 122.063 403.813 119.587L401.309 119.79C401.309 119.79 400.826 124.206 398.283 125.811C398.283 125.811 401.377 120.82 400.739 119.873C400.739 119.873 398.453 120.197 397.887 120.574C397.887 120.574 397.452 123.736 395.905 124.539C395.905 124.539 397.616 120.985 397.268 120.738C397.268 120.738 394.402 121.952 393.276 123.335C394.25 122.011 395.553 120.964 397.056 120.298C396.121 119.909 395.093 119.802 394.097 119.989C394.097 119.989 395.33 118.606 397.757 120.013C397.757 120.013 400.024 119.157 400.41 119.263C400.41 119.263 398.211 117.537 396.389 117.237C396.389 117.237 398.583 116.608 401.073 119.171L403.581 118.915C403.581 118.915 400.797 116.497 399.192 116.091C399.192 116.091 401.527 115.796 404.219 118.901L406.699 119.012C406.699 119.012 404.456 116.729 402.769 115.907C402.769 115.907 404.993 116.101 407.405 119.065L409.053 119.331C409.053 119.331 407.386 117.696 406.864 117.271C406.342 116.845 406.419 116.705 406.419 116.705C407.762 117.302 408.913 118.259 409.745 119.471C409.745 119.471 413.094 120.226 413.157 120.027Z" fill="#197C93"/>
<path opacity="0.1" d="M424.556 199.732C424.556 199.732 419.47 182.018 408.034 188.377C408.034 188.377 405.742 188.731 405.457 191.023C405.457 191.023 406.366 190.737 406.68 192.59C406.796 193.255 406.991 193.904 407.26 194.524C407.619 195.357 408.24 196.05 409.029 196.497C409.029 196.497 412.771 200.656 421.404 199.727C421.404 199.727 423.637 200.511 424.063 200.298L421.776 197.812C421.776 197.812 420.022 199.563 417.991 199.398C417.991 199.398 421.742 197.948 421.452 197.43C421.394 197.324 420.186 196.168 420.186 196.168C420.186 196.168 417.121 199.195 413.989 198.842C413.989 198.842 418.692 197.73 419.727 195.728L417.793 194.094C417.793 194.094 414.709 197.45 411.127 197.188C411.127 197.188 416 195.849 417.344 193.765L415.226 192.415C415.226 192.415 412.157 195.631 409.179 195.39C409.179 195.39 414.656 193.276 414.724 192.14C414.724 192.14 412.703 191.018 412.021 190.979C412.021 190.979 409.764 193.233 408.048 192.943C408.048 192.943 411.557 191.139 411.432 190.733C411.432 190.733 408.415 189.973 406.68 190.394C408.252 189.928 409.918 189.879 411.514 190.254C411.003 189.379 410.246 188.673 409.339 188.223C409.339 188.223 411.156 187.86 412.239 190.447C412.239 190.447 414.564 191.134 414.806 191.453C414.806 191.453 414.095 188.75 412.824 187.41C412.824 187.41 414.951 188.232 415.381 191.792L417.537 193.102C417.537 193.102 416.783 189.475 415.739 188.199C415.739 188.199 417.779 189.374 418.054 193.475L419.988 195.056C419.988 195.056 419.577 191.884 418.726 190.22C418.726 190.22 420.384 191.719 420.519 195.539L421.67 196.748C421.67 196.748 421.332 194.437 421.186 193.779C421.041 193.121 421.186 193.03 421.186 193.03C421.902 194.316 422.245 195.776 422.177 197.246C422.177 197.246 424.382 199.848 424.556 199.732Z" fill="#197C93"/>
<path opacity="0.1" d="M311.239 239.647C311.239 239.647 301.364 224.086 292.194 233.4C292.194 233.4 290.096 234.367 290.463 236.664C290.463 236.664 291.261 236.132 292.082 237.824C292.378 238.424 292.745 238.986 293.175 239.498C293.751 240.196 294.541 240.685 295.423 240.89C295.423 240.89 300.184 243.83 308.208 240.503C308.208 240.503 310.572 240.629 310.92 240.305L308.02 238.564C308.02 238.564 306.826 240.74 304.829 241.151C304.829 241.151 308.029 238.733 307.599 238.289C307.517 238.202 306.028 237.437 306.028 237.437C306.028 237.437 303.935 241.2 300.832 241.746C300.832 241.746 305.032 239.352 305.467 237.138L303.152 236.117C303.152 236.117 301.136 240.204 297.627 240.953C297.627 240.953 301.929 238.298 302.63 235.919L300.213 235.223C300.213 235.223 298.173 239.174 295.249 239.778C295.249 239.778 299.909 236.209 299.652 235.097C299.652 235.097 297.4 234.589 296.752 234.744C296.752 234.744 295.22 237.544 293.489 237.747C293.489 237.747 296.351 235.029 296.114 234.671C296.114 234.671 293.006 234.792 291.459 235.687C292.839 234.793 294.429 234.276 296.07 234.188C295.335 233.492 294.413 233.026 293.417 232.848C293.417 232.848 295.055 231.992 296.8 234.168C296.8 234.168 299.217 234.168 299.551 234.41C299.551 234.41 298.101 231.992 296.51 231.088C296.51 231.088 298.782 231.281 300.194 234.575L302.635 235.223C302.635 235.223 300.89 231.958 299.531 231.025C299.531 231.025 301.818 231.576 303.234 235.44L305.516 236.407C305.516 236.407 304.23 233.482 302.939 232.113C302.939 232.113 304.95 233.08 306.154 236.712L307.604 237.549C307.604 237.549 306.637 235.426 306.294 234.841C305.951 234.255 306.086 234.12 306.086 234.12C307.132 235.154 307.87 236.458 308.218 237.887C308.218 237.887 311.109 239.812 311.239 239.647Z" fill="#197C93"/>
<path d="M376.144 160.136C376.144 160.136 366.752 144.28 357.292 153.303C357.292 153.303 355.165 154.222 355.464 156.514C355.464 156.514 356.272 156.002 357.045 157.718C357.322 158.329 357.671 158.903 358.084 159.43C358.64 160.143 359.414 160.653 360.289 160.881C360.289 160.881 364.953 163.966 373.079 160.881C373.079 160.881 375.438 161.079 375.796 160.765L372.958 158.937C372.958 158.937 371.702 161.07 369.691 161.423C369.691 161.423 372.963 159.087 372.552 158.647C372.465 158.555 371.005 157.743 371.005 157.743C371.005 157.743 368.796 161.442 365.688 161.892C365.688 161.892 369.961 159.629 370.459 157.433L368.178 156.36C368.178 156.36 366.036 160.388 362.503 161.031C362.503 161.031 366.887 158.511 367.66 156.156L365.272 155.383C365.272 155.383 363.107 159.251 360.168 159.783C360.168 159.783 364.934 156.36 364.712 155.242C364.712 155.242 362.478 154.662 361.811 154.798C361.811 154.798 360.192 157.549 358.457 157.699C358.457 157.699 361.4 155.078 361.178 154.71C361.178 154.71 358.065 154.735 356.494 155.581C357.901 154.732 359.506 154.265 361.149 154.227C360.435 153.508 359.526 153.014 358.534 152.805C358.534 152.805 360.202 151.998 361.918 154.227C361.918 154.227 364.335 154.309 364.659 154.556C364.659 154.556 363.291 152.138 361.724 151.142C361.724 151.142 363.987 151.403 365.297 154.74L367.714 155.465C367.714 155.465 366.075 152.147 364.741 151.171C364.741 151.171 367.013 151.794 368.308 155.697L370.556 156.746C370.556 156.746 369.362 153.782 368.139 152.394C368.139 152.394 370.116 153.424 371.213 157.09L372.63 157.97C372.63 157.97 371.721 155.818 371.402 155.223C371.083 154.628 371.218 154.498 371.218 154.498C372.231 155.563 372.929 156.889 373.234 158.328C373.234 158.328 376.004 160.296 376.144 160.136Z" fill="#197C93"/>
<path d="M316.721 193.479C316.721 193.479 317.205 175.055 304.409 177.652C304.409 177.652 302.118 177.299 301.151 179.397C301.151 179.397 302.118 179.397 301.847 181.259C301.759 181.923 301.749 182.595 301.818 183.261C301.906 184.165 302.288 185.015 302.906 185.679C302.906 185.679 305.212 190.776 313.724 192.507C313.724 192.507 315.614 193.934 316.088 193.857L314.638 190.8C314.638 190.8 312.438 191.932 310.548 191.163C310.548 191.163 314.561 190.926 314.449 190.336C314.449 190.215 313.618 188.745 313.618 188.745C313.618 188.745 309.78 190.704 306.904 189.417C306.904 189.417 311.738 189.78 313.318 188.189L311.97 186.047C311.97 186.047 308.016 188.31 304.68 186.975C304.68 186.975 309.732 187.178 311.646 185.597L310.036 183.663C310.036 183.663 306.135 185.8 303.37 184.669C303.37 184.669 309.229 184.316 309.654 183.247C309.654 183.247 308.069 181.569 307.431 181.312C307.431 181.312 304.598 182.763 303.051 181.98C303.051 181.98 306.918 181.332 306.942 180.901C306.942 180.901 304.298 179.262 302.515 179.141C304.159 179.171 305.768 179.631 307.179 180.476C306.959 179.487 306.455 178.585 305.729 177.879C305.729 177.879 307.571 178.087 307.822 180.877C307.822 180.877 309.838 182.241 309.968 182.618C309.968 182.618 310.109 179.828 309.301 178.164C309.301 178.164 311.08 179.591 310.413 183.111L312.071 185.017C312.071 185.017 312.448 181.332 311.844 179.799C311.844 179.799 313.429 181.535 312.453 185.529L313.792 187.614C313.792 187.614 314.362 184.465 314.058 182.613C314.058 182.613 315.179 184.548 314.155 188.228L314.889 189.727C314.889 189.727 315.261 187.42 315.31 186.748C315.358 186.076 315.542 186.032 315.542 186.032C315.833 187.475 315.717 188.97 315.208 190.351C315.208 190.351 316.509 193.542 316.721 193.479Z" fill="#197C93"/>
<path opacity="0.1" d="M337.874 427.594C345.064 427.594 350.892 426.609 350.892 425.394C350.892 424.178 345.064 423.193 337.874 423.193C330.685 423.193 324.856 424.178 324.856 425.394C324.856 426.609 330.685 427.594 337.874 427.594Z" fill="#197C93"/>
<path opacity="0.1" d="M290.42 461C297.609 461 303.438 460.015 303.438 458.8C303.438 457.585 297.609 456.6 290.42 456.6C283.231 456.6 277.402 457.585 277.402 458.8C277.402 460.015 283.231 461 290.42 461Z" fill="#197C93"/>
<path opacity="0.1" d="M45.0225 443.886C52.212 443.886 58.0402 442.901 58.0402 441.686C58.0402 440.47 52.212 439.485 45.0225 439.485C37.8331 439.485 32.0049 440.47 32.0049 441.686C32.0049 442.901 37.8331 443.886 45.0225 443.886Z" fill="#197C93"/>
<path opacity="0.1" d="M389.156 458.8C396.346 458.8 402.174 457.814 402.174 456.599C402.174 455.384 396.346 454.399 389.156 454.399C381.967 454.399 376.139 455.384 376.139 456.599C376.139 457.814 381.967 458.8 389.156 458.8Z" fill="#197C93"/>
<path d="M402.71 431.97C413.445 431.97 422.148 430.498 422.148 428.682C422.148 426.866 413.445 425.394 402.71 425.394C391.976 425.394 383.273 426.866 383.273 428.682C383.273 430.498 391.976 431.97 402.71 431.97Z" fill="#197C93"/>
<path d="M410.769 423.299C411.656 422.578 412.302 421.603 412.62 420.504C412.862 419.392 412.388 418.062 411.329 417.656C410.14 417.201 408.869 418.023 407.902 418.855C406.935 419.687 405.838 420.64 404.577 420.466C405.224 419.877 405.709 419.131 405.983 418.3C406.258 417.468 406.313 416.58 406.143 415.722C406.088 415.366 405.938 415.031 405.708 414.754C405.045 414.048 403.851 414.353 403.059 414.909C400.545 416.679 399.844 420.093 399.83 423.169C399.578 422.061 399.791 420.906 399.786 419.784C399.781 418.662 399.467 417.366 398.505 416.776C397.915 416.446 397.248 416.28 396.572 416.292C395.441 416.253 394.179 416.365 393.41 417.192C392.444 418.217 392.7 419.943 393.531 421.06C394.363 422.177 395.634 422.898 396.804 423.681C397.74 424.241 398.539 425.002 399.143 425.911C399.212 426.037 399.269 426.17 399.312 426.307H406.399C407.985 425.508 409.456 424.496 410.769 423.299Z" fill="#197C93"/>
<path d="M36.2832 431.457C36.2832 431.457 43.7032 431.23 45.951 429.634C48.1987 428.039 57.3735 426.138 57.9293 428.696C58.4852 431.254 69.086 441.41 60.704 441.477C52.322 441.545 41.2283 440.172 38.995 438.808C36.7618 437.444 36.2832 431.457 36.2832 431.457Z" fill="#A8A8A8"/>
<path opacity="0.2" d="M60.8442 440.588C52.4622 440.656 41.3685 439.282 39.1352 437.919C37.4337 436.884 36.7569 433.165 36.5297 431.448H36.2832C36.2832 431.448 36.7666 437.44 38.9854 438.799C41.2041 440.158 52.3124 441.536 60.6943 441.468C63.1113 441.468 63.9475 440.588 63.904 439.311C63.5656 440.09 62.6424 440.573 60.8442 440.588Z" fill="black"/>
</g>
<path d="M183.415 13.542V17H181.595V13.57L177.745 7.2H179.691L182.561 11.974L185.459 7.2H187.251L183.415 13.542ZM190.801 17.098C190.045 17.098 189.364 16.9347 188.757 16.608C188.15 16.2813 187.674 15.8287 187.329 15.25C186.993 14.662 186.825 13.9993 186.825 13.262C186.825 12.5247 186.993 11.8667 187.329 11.288C187.674 10.7093 188.15 10.2567 188.757 9.93C189.364 9.60333 190.045 9.44 190.801 9.44C191.566 9.44 192.252 9.60333 192.859 9.93C193.466 10.2567 193.937 10.7093 194.273 11.288C194.618 11.8667 194.791 12.5247 194.791 13.262C194.791 13.9993 194.618 14.662 194.273 15.25C193.937 15.8287 193.466 16.2813 192.859 16.608C192.252 16.9347 191.566 17.098 190.801 17.098ZM190.801 15.6C191.445 15.6 191.977 15.3853 192.397 14.956C192.817 14.5267 193.027 13.962 193.027 13.262C193.027 12.562 192.817 11.9973 192.397 11.568C191.977 11.1387 191.445 10.924 190.801 10.924C190.157 10.924 189.625 11.1387 189.205 11.568C188.794 11.9973 188.589 12.562 188.589 13.262C188.589 13.962 188.794 14.5267 189.205 14.956C189.625 15.3853 190.157 15.6 190.801 15.6ZM203.702 9.524V17H202.036V16.048C201.756 16.384 201.406 16.6453 200.986 16.832C200.566 17.0093 200.114 17.098 199.628 17.098C198.63 17.098 197.841 16.8227 197.262 16.272C196.693 15.712 196.408 14.886 196.408 13.794V9.524H198.158V13.556C198.158 14.228 198.308 14.732 198.606 15.068C198.914 15.3947 199.348 15.558 199.908 15.558C200.534 15.558 201.028 15.3667 201.392 14.984C201.766 14.592 201.952 14.032 201.952 13.304V9.524H203.702ZM207.66 10.616C208.164 9.832 209.05 9.44 210.32 9.44V11.106C210.17 11.078 210.035 11.064 209.914 11.064C209.232 11.064 208.7 11.2647 208.318 11.666C207.935 12.058 207.744 12.6273 207.744 13.374V17H205.994V9.524H207.66V10.616ZM219.172 17.098C218.397 17.098 217.702 16.9347 217.086 16.608C216.47 16.2813 215.989 15.8287 215.644 15.25C215.298 14.662 215.126 13.9993 215.126 13.262C215.126 12.5247 215.298 11.8667 215.644 11.288C215.989 10.7093 216.465 10.2567 217.072 9.93C217.688 9.60333 218.388 9.44 219.172 9.44C219.909 9.44 220.553 9.58933 221.104 9.888C221.664 10.1867 222.084 10.616 222.364 11.176L221.02 11.96C220.805 11.6147 220.534 11.358 220.208 11.19C219.89 11.0127 219.54 10.924 219.158 10.924C218.504 10.924 217.963 11.1387 217.534 11.568C217.104 11.988 216.89 12.5527 216.89 13.262C216.89 13.9713 217.1 14.5407 217.52 14.97C217.949 15.39 218.495 15.6 219.158 15.6C219.54 15.6 219.89 15.516 220.208 15.348C220.534 15.1707 220.805 14.9093 221.02 14.564L222.364 15.348C222.074 15.908 221.65 16.342 221.09 16.65C220.539 16.9487 219.9 17.098 219.172 17.098ZM226.733 9.44C227.834 9.44 228.674 9.706 229.253 10.238C229.841 10.7607 230.135 11.554 230.135 12.618V17H228.483V16.09C228.268 16.4167 227.96 16.6687 227.559 16.846C227.167 17.014 226.691 17.098 226.131 17.098C225.571 17.098 225.081 17.0047 224.661 16.818C224.241 16.622 223.914 16.356 223.681 16.02C223.457 15.6747 223.345 15.2873 223.345 14.858C223.345 14.186 223.592 13.6493 224.087 13.248C224.591 12.8373 225.379 12.632 226.453 12.632H228.385V12.52C228.385 11.9973 228.226 11.596 227.909 11.316C227.601 11.036 227.139 10.896 226.523 10.896C226.103 10.896 225.687 10.9613 225.277 11.092C224.875 11.2227 224.535 11.4047 224.255 11.638L223.569 10.364C223.961 10.0653 224.432 9.83667 224.983 9.678C225.533 9.51933 226.117 9.44 226.733 9.44ZM226.495 15.824C226.933 15.824 227.321 15.726 227.657 15.53C228.002 15.3247 228.245 15.0353 228.385 14.662V13.794H226.579C225.571 13.794 225.067 14.1253 225.067 14.788C225.067 15.1053 225.193 15.3573 225.445 15.544C225.697 15.7307 226.047 15.824 226.495 15.824ZM234.046 10.616C234.55 9.832 235.437 9.44 236.706 9.44V11.106C236.557 11.078 236.422 11.064 236.3 11.064C235.619 11.064 235.087 11.2647 234.704 11.666C234.322 12.058 234.13 12.6273 234.13 13.374V17H232.38V9.524H234.046V10.616ZM242.958 16.594C242.753 16.762 242.501 16.888 242.202 16.972C241.913 17.056 241.605 17.098 241.278 17.098C240.457 17.098 239.822 16.8833 239.374 16.454C238.926 16.0247 238.702 15.3993 238.702 14.578V10.98H237.47V9.58H238.702V7.872H240.452V9.58H242.454V10.98H240.452V14.536C240.452 14.9 240.541 15.18 240.718 15.376C240.896 15.5627 241.152 15.656 241.488 15.656C241.88 15.656 242.207 15.5533 242.468 15.348L242.958 16.594ZM248.267 9.524H250.017V17H248.267V9.524ZM249.149 8.292C248.832 8.292 248.566 8.194 248.351 7.998C248.136 7.79267 248.029 7.54067 248.029 7.242C248.029 6.94333 248.136 6.696 248.351 6.5C248.566 6.29467 248.832 6.192 249.149 6.192C249.466 6.192 249.732 6.29 249.947 6.486C250.162 6.67267 250.269 6.91067 250.269 7.2C250.269 7.508 250.162 7.76933 249.947 7.984C249.742 8.18933 249.476 8.292 249.149 8.292ZM254.624 17.098C254.017 17.098 253.425 17.0187 252.846 16.86C252.267 16.7013 251.805 16.5007 251.46 16.258L252.132 14.928C252.468 15.152 252.869 15.334 253.336 15.474C253.812 15.6047 254.279 15.67 254.736 15.67C255.781 15.67 256.304 15.3947 256.304 14.844C256.304 14.5827 256.169 14.4007 255.898 14.298C255.637 14.1953 255.212 14.0973 254.624 14.004C254.008 13.9107 253.504 13.8033 253.112 13.682C252.729 13.5607 252.393 13.3507 252.104 13.052C251.824 12.744 251.684 12.3193 251.684 11.778C251.684 11.0687 251.978 10.504 252.566 10.084C253.163 9.65467 253.966 9.44 254.974 9.44C255.487 9.44 256.001 9.50067 256.514 9.622C257.027 9.734 257.447 9.888 257.774 10.084L257.102 11.414C256.467 11.0407 255.753 10.854 254.96 10.854C254.447 10.854 254.055 10.9333 253.784 11.092C253.523 11.2413 253.392 11.442 253.392 11.694C253.392 11.974 253.532 12.1747 253.812 12.296C254.101 12.408 254.545 12.5153 255.142 12.618C255.739 12.7113 256.229 12.8187 256.612 12.94C256.995 13.0613 257.321 13.2667 257.592 13.556C257.872 13.8453 258.012 14.256 258.012 14.788C258.012 15.488 257.709 16.048 257.102 16.468C256.495 16.888 255.669 17.098 254.624 17.098ZM270.416 13.304C270.416 13.4253 270.407 13.598 270.388 13.822H264.522C264.625 14.3727 264.891 14.8113 265.32 15.138C265.759 15.4553 266.3 15.614 266.944 15.614C267.766 15.614 268.442 15.3433 268.974 14.802L269.912 15.88C269.576 16.2813 269.152 16.5847 268.638 16.79C268.125 16.9953 267.546 17.098 266.902 17.098C266.081 17.098 265.358 16.9347 264.732 16.608C264.107 16.2813 263.622 15.8287 263.276 15.25C262.94 14.662 262.772 13.9993 262.772 13.262C262.772 12.534 262.936 11.8807 263.262 11.302C263.598 10.714 264.06 10.2567 264.648 9.93C265.236 9.60333 265.899 9.44 266.636 9.44C267.364 9.44 268.013 9.60333 268.582 9.93C269.161 10.2473 269.609 10.7 269.926 11.288C270.253 11.8667 270.416 12.5387 270.416 13.304ZM266.636 10.84C266.076 10.84 265.6 11.008 265.208 11.344C264.826 11.6707 264.592 12.1093 264.508 12.66H268.75C268.676 12.1187 268.447 11.68 268.064 11.344C267.682 11.008 267.206 10.84 266.636 10.84ZM281.533 9.44C282.476 9.44 283.223 9.71533 283.773 10.266C284.324 10.8073 284.599 11.624 284.599 12.716V17H282.849V12.94C282.849 12.2867 282.705 11.7967 282.415 11.47C282.126 11.134 281.711 10.966 281.169 10.966C280.581 10.966 280.11 11.162 279.755 11.554C279.401 11.9367 279.223 12.4873 279.223 13.206V17H277.473V12.94C277.473 12.2867 277.329 11.7967 277.039 11.47C276.75 11.134 276.335 10.966 275.793 10.966C275.196 10.966 274.72 11.1573 274.365 11.54C274.02 11.9227 273.847 12.478 273.847 13.206V17H272.097V9.524H273.763V10.476C274.043 10.14 274.393 9.88333 274.813 9.706C275.233 9.52867 275.7 9.44 276.213 9.44C276.773 9.44 277.268 9.54733 277.697 9.762C278.136 9.96733 278.481 10.2753 278.733 10.686C279.041 10.294 279.438 9.99067 279.923 9.776C280.409 9.552 280.945 9.44 281.533 9.44ZM290.98 9.44C291.708 9.44 292.356 9.59867 292.926 9.916C293.504 10.2333 293.957 10.6813 294.284 11.26C294.61 11.8387 294.774 12.506 294.774 13.262C294.774 14.018 294.61 14.69 294.284 15.278C293.957 15.8567 293.504 16.3047 292.926 16.622C292.356 16.9393 291.708 17.098 290.98 17.098C289.972 17.098 289.174 16.762 288.586 16.09V19.716H286.836V9.524H288.502V10.504C288.791 10.1493 289.146 9.88333 289.566 9.706C289.995 9.52867 290.466 9.44 290.98 9.44ZM290.784 15.6C291.428 15.6 291.955 15.3853 292.366 14.956C292.786 14.5267 292.996 13.962 292.996 13.262C292.996 12.562 292.786 11.9973 292.366 11.568C291.955 11.1387 291.428 10.924 290.784 10.924C290.364 10.924 289.986 11.022 289.65 11.218C289.314 11.4047 289.048 11.6753 288.852 12.03C288.656 12.3847 288.558 12.7953 288.558 13.262C288.558 13.7287 288.656 14.1393 288.852 14.494C289.048 14.8487 289.314 15.124 289.65 15.32C289.986 15.5067 290.364 15.6 290.784 15.6ZM300.927 16.594C300.722 16.762 300.47 16.888 300.171 16.972C299.882 17.056 299.574 17.098 299.247 17.098C298.426 17.098 297.791 16.8833 297.343 16.454C296.895 16.0247 296.671 15.3993 296.671 14.578V10.98H295.439V9.58H296.671V7.872H298.421V9.58H300.423V10.98H298.421V14.536C298.421 14.9 298.51 15.18 298.687 15.376C298.864 15.5627 299.121 15.656 299.457 15.656C299.849 15.656 300.176 15.5533 300.437 15.348L300.927 16.594ZM309.23 9.524L305.73 17.602C305.403 18.414 305.007 18.9833 304.54 19.31C304.073 19.646 303.509 19.814 302.846 19.814C302.473 19.814 302.104 19.7533 301.74 19.632C301.376 19.5107 301.077 19.3427 300.844 19.128L301.544 17.84C301.712 17.9987 301.908 18.1247 302.132 18.218C302.365 18.3113 302.599 18.358 302.832 18.358C303.14 18.358 303.392 18.2787 303.588 18.12C303.793 17.9613 303.98 17.6953 304.148 17.322L304.274 17.028L301.012 9.524H302.832L305.184 15.054L307.55 9.524H309.23ZM310.419 17.098C310.102 17.098 309.831 16.9907 309.607 16.776C309.383 16.552 309.271 16.272 309.271 15.936C309.271 15.5907 309.378 15.3107 309.593 15.096C309.817 14.8813 310.092 14.774 310.419 14.774C310.746 14.774 311.016 14.8813 311.231 15.096C311.455 15.3107 311.567 15.5907 311.567 15.936C311.567 16.272 311.455 16.552 311.231 16.776C311.007 16.9907 310.736 17.098 310.419 17.098ZM78.7358 41.14C77.9798 41.14 77.2472 41.0327 76.5378 40.818C75.8378 40.6033 75.2825 40.3187 74.8718 39.964L75.5018 38.55C75.9032 38.8673 76.3932 39.1287 76.9718 39.334C77.5598 39.53 78.1478 39.628 78.7358 39.628C79.4638 39.628 80.0052 39.5113 80.3598 39.278C80.7238 39.0447 80.9058 38.7367 80.9058 38.354C80.9058 38.074 80.8032 37.8453 80.5978 37.668C80.4018 37.4813 80.1498 37.3367 79.8418 37.234C79.5338 37.1313 79.1138 37.0147 78.5818 36.884C77.8352 36.7067 77.2285 36.5293 76.7618 36.352C76.3045 36.1747 75.9078 35.8993 75.5718 35.526C75.2452 35.1433 75.0818 34.63 75.0818 33.986C75.0818 33.4447 75.2265 32.9547 75.5158 32.516C75.8145 32.068 76.2578 31.7133 76.8458 31.452C77.4432 31.1907 78.1712 31.06 79.0298 31.06C79.6272 31.06 80.2152 31.1347 80.7938 31.284C81.3725 31.4333 81.8718 31.648 82.2918 31.928L81.7178 33.342C81.2885 33.09 80.8405 32.8987 80.3738 32.768C79.9072 32.6373 79.4545 32.572 79.0158 32.572C78.2972 32.572 77.7605 32.6933 77.4058 32.936C77.0605 33.1787 76.8878 33.5007 76.8878 33.902C76.8878 34.182 76.9858 34.4107 77.1818 34.588C77.3872 34.7653 77.6438 34.9053 77.9518 35.008C78.2598 35.1107 78.6798 35.2273 79.2118 35.358C79.9398 35.526 80.5372 35.7033 81.0038 35.89C81.4705 36.0673 81.8672 36.3427 82.1938 36.716C82.5298 37.0893 82.6978 37.5933 82.6978 38.228C82.6978 38.7693 82.5485 39.2593 82.2498 39.698C81.9605 40.1367 81.5172 40.4867 80.9198 40.748C80.3225 41.0093 79.5945 41.14 78.7358 41.14ZM95.8598 33.524L93.1018 41H91.4218L89.4898 35.848L87.5298 41H85.8498L83.1058 33.524H84.7578L86.7318 39.04L88.7898 33.524H90.2598L92.2758 39.068L94.3058 33.524H95.8598ZM97.063 33.524H98.813V41H97.063V33.524ZM97.945 32.292C97.6277 32.292 97.3617 32.194 97.147 31.998C96.9324 31.7927 96.825 31.5407 96.825 31.242C96.825 30.9433 96.9324 30.696 97.147 30.5C97.3617 30.2947 97.6277 30.192 97.945 30.192C98.2624 30.192 98.5284 30.29 98.743 30.486C98.9577 30.6727 99.065 30.9107 99.065 31.2C99.065 31.508 98.9577 31.7693 98.743 31.984C98.5377 32.1893 98.2717 32.292 97.945 32.292ZM105.604 40.594C105.399 40.762 105.147 40.888 104.848 40.972C104.559 41.056 104.251 41.098 103.924 41.098C103.103 41.098 102.468 40.8833 102.02 40.454C101.572 40.0247 101.348 39.3993 101.348 38.578V34.98H100.116V33.58H101.348V31.872H103.098V33.58H105.1V34.98H103.098V38.536C103.098 38.9 103.187 39.18 103.364 39.376C103.541 39.5627 103.798 39.656 104.134 39.656C104.526 39.656 104.853 39.5533 105.114 39.348L105.604 40.594ZM110.227 41.098C109.453 41.098 108.757 40.9347 108.141 40.608C107.525 40.2813 107.045 39.8287 106.699 39.25C106.354 38.662 106.181 37.9993 106.181 37.262C106.181 36.5247 106.354 35.8667 106.699 35.288C107.045 34.7093 107.521 34.2567 108.127 33.93C108.743 33.6033 109.443 33.44 110.227 33.44C110.965 33.44 111.609 33.5893 112.159 33.888C112.719 34.1867 113.139 34.616 113.419 35.176L112.075 35.96C111.861 35.6147 111.59 35.358 111.263 35.19C110.946 35.0127 110.596 34.924 110.213 34.924C109.56 34.924 109.019 35.1387 108.589 35.568C108.16 35.988 107.945 36.5527 107.945 37.262C107.945 37.9713 108.155 38.5407 108.575 38.97C109.005 39.39 109.551 39.6 110.213 39.6C110.596 39.6 110.946 39.516 111.263 39.348C111.59 39.1707 111.861 38.9093 112.075 38.564L113.419 39.348C113.13 39.908 112.705 40.342 112.145 40.65C111.595 40.9487 110.955 41.098 110.227 41.098ZM119.106 33.44C120.048 33.44 120.804 33.7153 121.374 34.266C121.943 34.8167 122.228 35.6333 122.228 36.716V41H120.478V36.94C120.478 36.2867 120.324 35.7967 120.016 35.47C119.708 35.134 119.269 34.966 118.7 34.966C118.056 34.966 117.547 35.162 117.174 35.554C116.8 35.9367 116.614 36.492 116.614 37.22V41H114.864V30.612H116.614V34.392C116.903 34.084 117.258 33.8507 117.678 33.692C118.107 33.524 118.583 33.44 119.106 33.44ZM132.811 40.594C132.606 40.762 132.354 40.888 132.055 40.972C131.766 41.056 131.458 41.098 131.131 41.098C130.31 41.098 129.675 40.8833 129.227 40.454C128.779 40.0247 128.555 39.3993 128.555 38.578V34.98H127.323V33.58H128.555V31.872H130.305V33.58H132.307V34.98H130.305V38.536C130.305 38.9 130.394 39.18 130.571 39.376C130.748 39.5627 131.005 39.656 131.341 39.656C131.733 39.656 132.06 39.5533 132.321 39.348L132.811 40.594ZM137.364 41.098C136.608 41.098 135.927 40.9347 135.32 40.608C134.714 40.2813 134.238 39.8287 133.892 39.25C133.556 38.662 133.388 37.9993 133.388 37.262C133.388 36.5247 133.556 35.8667 133.892 35.288C134.238 34.7093 134.714 34.2567 135.32 33.93C135.927 33.6033 136.608 33.44 137.364 33.44C138.13 33.44 138.816 33.6033 139.422 33.93C140.029 34.2567 140.5 34.7093 140.836 35.288C141.182 35.8667 141.354 36.5247 141.354 37.262C141.354 37.9993 141.182 38.662 140.836 39.25C140.5 39.8287 140.029 40.2813 139.422 40.608C138.816 40.9347 138.13 41.098 137.364 41.098ZM137.364 39.6C138.008 39.6 138.54 39.3853 138.96 38.956C139.38 38.5267 139.59 37.962 139.59 37.262C139.59 36.562 139.38 35.9973 138.96 35.568C138.54 35.1387 138.008 34.924 137.364 34.924C136.72 34.924 136.188 35.1387 135.768 35.568C135.358 35.9973 135.152 36.562 135.152 37.262C135.152 37.962 135.358 38.5267 135.768 38.956C136.188 39.3853 136.72 39.6 137.364 39.6ZM149.753 33.44C150.854 33.44 151.694 33.706 152.273 34.238C152.861 34.7607 153.155 35.554 153.155 36.618V41H151.503V40.09C151.288 40.4167 150.98 40.6687 150.579 40.846C150.187 41.014 149.711 41.098 149.151 41.098C148.591 41.098 148.101 41.0047 147.681 40.818C147.261 40.622 146.934 40.356 146.701 40.02C146.477 39.6747 146.365 39.2873 146.365 38.858C146.365 38.186 146.612 37.6493 147.107 37.248C147.611 36.8373 148.4 36.632 149.473 36.632H151.405V36.52C151.405 35.9973 151.246 35.596 150.929 35.316C150.621 35.036 150.159 34.896 149.543 34.896C149.123 34.896 148.708 34.9613 148.297 35.092C147.896 35.2227 147.555 35.4047 147.275 35.638L146.589 34.364C146.981 34.0653 147.452 33.8367 148.003 33.678C148.554 33.5193 149.137 33.44 149.753 33.44ZM149.515 39.824C149.954 39.824 150.341 39.726 150.677 39.53C151.022 39.3247 151.265 39.0353 151.405 38.662V37.794H149.599C148.591 37.794 148.087 38.1253 148.087 38.788C148.087 39.1053 148.213 39.3573 148.465 39.544C148.717 39.7307 149.067 39.824 149.515 39.824ZM159.643 33.44C160.586 33.44 161.342 33.7153 161.911 34.266C162.48 34.8167 162.765 35.6333 162.765 36.716V41H161.015V36.94C161.015 36.2867 160.861 35.7967 160.553 35.47C160.245 35.134 159.806 34.966 159.237 34.966C158.593 34.966 158.084 35.162 157.711 35.554C157.338 35.9367 157.151 36.492 157.151 37.22V41H155.401V33.524H157.067V34.49C157.356 34.1447 157.72 33.8833 158.159 33.706C158.598 33.5287 159.092 33.44 159.643 33.44ZM168.413 41.098C167.657 41.098 166.976 40.9347 166.369 40.608C165.763 40.2813 165.287 39.8287 164.941 39.25C164.605 38.662 164.437 37.9993 164.437 37.262C164.437 36.5247 164.605 35.8667 164.941 35.288C165.287 34.7093 165.763 34.2567 166.369 33.93C166.976 33.6033 167.657 33.44 168.413 33.44C169.179 33.44 169.865 33.6033 170.471 33.93C171.078 34.2567 171.549 34.7093 171.885 35.288C172.231 35.8667 172.403 36.5247 172.403 37.262C172.403 37.9993 172.231 38.662 171.885 39.25C171.549 39.8287 171.078 40.2813 170.471 40.608C169.865 40.9347 169.179 41.098 168.413 41.098ZM168.413 39.6C169.057 39.6 169.589 39.3853 170.009 38.956C170.429 38.5267 170.639 37.962 170.639 37.262C170.639 36.562 170.429 35.9973 170.009 35.568C169.589 35.1387 169.057 34.924 168.413 34.924C167.769 34.924 167.237 35.1387 166.817 35.568C166.407 35.9973 166.201 36.562 166.201 37.262C166.201 37.962 166.407 38.5267 166.817 38.956C167.237 39.3853 167.769 39.6 168.413 39.6ZM178.571 40.594C178.365 40.762 178.113 40.888 177.815 40.972C177.525 41.056 177.217 41.098 176.891 41.098C176.069 41.098 175.435 40.8833 174.987 40.454C174.539 40.0247 174.315 39.3993 174.315 38.578V34.98H173.083V33.58H174.315V31.872H176.065V33.58H178.067V34.98H176.065V38.536C176.065 38.9 176.153 39.18 176.331 39.376C176.508 39.5627 176.765 39.656 177.101 39.656C177.493 39.656 177.819 39.5533 178.081 39.348L178.571 40.594ZM184.252 33.44C185.195 33.44 185.951 33.7153 186.52 34.266C187.09 34.8167 187.374 35.6333 187.374 36.716V41H185.624V36.94C185.624 36.2867 185.47 35.7967 185.162 35.47C184.854 35.134 184.416 34.966 183.846 34.966C183.202 34.966 182.694 35.162 182.32 35.554C181.947 35.9367 181.76 36.492 181.76 37.22V41H180.01V30.612H181.76V34.392C182.05 34.084 182.404 33.8507 182.824 33.692C183.254 33.524 183.73 33.44 184.252 33.44ZM196.691 37.304C196.691 37.4253 196.681 37.598 196.663 37.822H190.797C190.899 38.3727 191.165 38.8113 191.595 39.138C192.033 39.4553 192.575 39.614 193.219 39.614C194.04 39.614 194.717 39.3433 195.249 38.802L196.187 39.88C195.851 40.2813 195.426 40.5847 194.913 40.79C194.399 40.9953 193.821 41.098 193.177 41.098C192.355 41.098 191.632 40.9347 191.007 40.608C190.381 40.2813 189.896 39.8287 189.551 39.25C189.215 38.662 189.047 37.9993 189.047 37.262C189.047 36.534 189.21 35.8807 189.537 35.302C189.873 34.714 190.335 34.2567 190.923 33.93C191.511 33.6033 192.173 33.44 192.911 33.44C193.639 33.44 194.287 33.6033 194.857 33.93C195.435 34.2473 195.883 34.7 196.201 35.288C196.527 35.8667 196.691 36.5387 196.691 37.304ZM192.911 34.84C192.351 34.84 191.875 35.008 191.483 35.344C191.1 35.6707 190.867 36.1093 190.783 36.66H195.025C194.95 36.1187 194.721 35.68 194.339 35.344C193.956 35.008 193.48 34.84 192.911 34.84ZM200.038 34.616C200.542 33.832 201.428 33.44 202.698 33.44V35.106C202.548 35.078 202.413 35.064 202.292 35.064C201.61 35.064 201.078 35.2647 200.696 35.666C200.313 36.058 200.122 36.6273 200.122 37.374V41H198.372V33.524H200.038V34.616ZM211.55 41.098C210.775 41.098 210.08 40.9347 209.464 40.608C208.848 40.2813 208.367 39.8287 208.022 39.25C207.676 38.662 207.504 37.9993 207.504 37.262C207.504 36.5247 207.676 35.8667 208.022 35.288C208.367 34.7093 208.843 34.2567 209.45 33.93C210.066 33.6033 210.766 33.44 211.55 33.44C212.287 33.44 212.931 33.5893 213.482 33.888C214.042 34.1867 214.462 34.616 214.742 35.176L213.398 35.96C213.183 35.6147 212.912 35.358 212.586 35.19C212.268 35.0127 211.918 34.924 211.536 34.924C210.882 34.924 210.341 35.1387 209.912 35.568C209.482 35.988 209.268 36.5527 209.268 37.262C209.268 37.9713 209.478 38.5407 209.898 38.97C210.327 39.39 210.873 39.6 211.536 39.6C211.918 39.6 212.268 39.516 212.586 39.348C212.912 39.1707 213.183 38.9093 213.398 38.564L214.742 39.348C214.452 39.908 214.028 40.342 213.468 40.65C212.917 40.9487 212.278 41.098 211.55 41.098ZM219.11 33.44C220.212 33.44 221.052 33.706 221.63 34.238C222.218 34.7607 222.512 35.554 222.512 36.618V41H220.86V40.09C220.646 40.4167 220.338 40.6687 219.936 40.846C219.544 41.014 219.068 41.098 218.508 41.098C217.948 41.098 217.458 41.0047 217.038 40.818C216.618 40.622 216.292 40.356 216.058 40.02C215.834 39.6747 215.722 39.2873 215.722 38.858C215.722 38.186 215.97 37.6493 216.464 37.248C216.968 36.8373 217.757 36.632 218.83 36.632H220.762V36.52C220.762 35.9973 220.604 35.596 220.286 35.316C219.978 35.036 219.516 34.896 218.9 34.896C218.48 34.896 218.065 34.9613 217.654 35.092C217.253 35.2227 216.912 35.4047 216.632 35.638L215.946 34.364C216.338 34.0653 216.81 33.8367 217.36 33.678C217.911 33.5193 218.494 33.44 219.11 33.44ZM218.872 39.824C219.311 39.824 219.698 39.726 220.034 39.53C220.38 39.3247 220.622 39.0353 220.762 38.662V37.794H218.956C217.948 37.794 217.444 38.1253 217.444 38.788C217.444 39.1053 217.57 39.3573 217.822 39.544C218.074 39.7307 218.424 39.824 218.872 39.824ZM226.424 34.616C226.928 33.832 227.815 33.44 229.084 33.44V35.106C228.935 35.078 228.8 35.064 228.678 35.064C227.997 35.064 227.465 35.2647 227.082 35.666C226.7 36.058 226.508 36.6273 226.508 37.374V41H224.758V33.524H226.424V34.616ZM235.336 40.594C235.131 40.762 234.879 40.888 234.58 40.972C234.291 41.056 233.983 41.098 233.656 41.098C232.835 41.098 232.2 40.8833 231.752 40.454C231.304 40.0247 231.08 39.3993 231.08 38.578V34.98H229.848V33.58H231.08V31.872H232.83V33.58H234.832V34.98H232.83V38.536C232.83 38.9 232.919 39.18 233.096 39.376C233.274 39.5627 233.53 39.656 233.866 39.656C234.258 39.656 234.585 39.5533 234.846 39.348L235.336 40.594ZM244.005 41.098C243.249 41.098 242.568 40.9347 241.961 40.608C241.354 40.2813 240.878 39.8287 240.533 39.25C240.197 38.662 240.029 37.9993 240.029 37.262C240.029 36.5247 240.197 35.8667 240.533 35.288C240.878 34.7093 241.354 34.2567 241.961 33.93C242.568 33.6033 243.249 33.44 244.005 33.44C244.77 33.44 245.456 33.6033 246.063 33.93C246.67 34.2567 247.141 34.7093 247.477 35.288C247.822 35.8667 247.995 36.5247 247.995 37.262C247.995 37.9993 247.822 38.662 247.477 39.25C247.141 39.8287 246.67 40.2813 246.063 40.608C245.456 40.9347 244.77 41.098 244.005 41.098ZM244.005 39.6C244.649 39.6 245.181 39.3853 245.601 38.956C246.021 38.5267 246.231 37.962 246.231 37.262C246.231 36.562 246.021 35.9973 245.601 35.568C245.181 35.1387 244.649 34.924 244.005 34.924C243.361 34.924 242.829 35.1387 242.409 35.568C241.998 35.9973 241.793 36.562 241.793 37.262C241.793 37.962 241.998 38.5267 242.409 38.956C242.829 39.3853 243.361 39.6 244.005 39.6ZM251.335 34.616C251.839 33.832 252.725 33.44 253.995 33.44V35.106C253.845 35.078 253.71 35.064 253.589 35.064C252.907 35.064 252.375 35.2647 251.993 35.666C251.61 36.058 251.419 36.6273 251.419 37.374V41H249.669V33.524H251.335V34.616ZM262.273 33.44C263.374 33.44 264.214 33.706 264.793 34.238C265.381 34.7607 265.675 35.554 265.675 36.618V41H264.023V40.09C263.808 40.4167 263.5 40.6687 263.099 40.846C262.707 41.014 262.231 41.098 261.671 41.098C261.111 41.098 260.621 41.0047 260.201 40.818C259.781 40.622 259.454 40.356 259.221 40.02C258.997 39.6747 258.885 39.2873 258.885 38.858C258.885 38.186 259.132 37.6493 259.627 37.248C260.131 36.8373 260.919 36.632 261.993 36.632H263.925V36.52C263.925 35.9973 263.766 35.596 263.449 35.316C263.141 35.036 262.679 34.896 262.063 34.896C261.643 34.896 261.227 34.9613 260.817 35.092C260.415 35.2227 260.075 35.4047 259.795 35.638L259.109 34.364C259.501 34.0653 259.972 33.8367 260.523 33.678C261.073 33.5193 261.657 33.44 262.273 33.44ZM262.035 39.824C262.473 39.824 262.861 39.726 263.197 39.53C263.542 39.3247 263.785 39.0353 263.925 38.662V37.794H262.119C261.111 37.794 260.607 38.1253 260.607 38.788C260.607 39.1053 260.733 39.3573 260.985 39.544C261.237 39.7307 261.587 39.824 262.035 39.824ZM275.311 30.612V41H273.631V40.034C273.341 40.3887 272.982 40.6547 272.553 40.832C272.133 41.0093 271.666 41.098 271.153 41.098C270.434 41.098 269.785 40.9393 269.207 40.622C268.637 40.3047 268.189 39.8567 267.863 39.278C267.536 38.69 267.373 38.018 267.373 37.262C267.373 36.506 267.536 35.8387 267.863 35.26C268.189 34.6813 268.637 34.2333 269.207 33.916C269.785 33.5987 270.434 33.44 271.153 33.44C271.647 33.44 272.1 33.524 272.511 33.692C272.921 33.86 273.271 34.112 273.561 34.448V30.612H275.311ZM271.363 39.6C271.783 39.6 272.161 39.5067 272.497 39.32C272.833 39.124 273.099 38.8487 273.295 38.494C273.491 38.1393 273.589 37.7287 273.589 37.262C273.589 36.7953 273.491 36.3847 273.295 36.03C273.099 35.6753 272.833 35.4047 272.497 35.218C272.161 35.022 271.783 34.924 271.363 34.924C270.943 34.924 270.565 35.022 270.229 35.218C269.893 35.4047 269.627 35.6753 269.431 36.03C269.235 36.3847 269.137 36.7953 269.137 37.262C269.137 37.7287 269.235 38.1393 269.431 38.494C269.627 38.8487 269.893 39.124 270.229 39.32C270.565 39.5067 270.943 39.6 271.363 39.6ZM284.922 30.612V41H283.242V40.034C282.953 40.3887 282.593 40.6547 282.164 40.832C281.744 41.0093 281.277 41.098 280.764 41.098C280.045 41.098 279.397 40.9393 278.818 40.622C278.249 40.3047 277.801 39.8567 277.474 39.278C277.147 38.69 276.984 38.018 276.984 37.262C276.984 36.506 277.147 35.8387 277.474 35.26C277.801 34.6813 278.249 34.2333 278.818 33.916C279.397 33.5987 280.045 33.44 280.764 33.44C281.259 33.44 281.711 33.524 282.122 33.692C282.533 33.86 282.883 34.112 283.172 34.448V30.612H284.922ZM280.974 39.6C281.394 39.6 281.772 39.5067 282.108 39.32C282.444 39.124 282.71 38.8487 282.906 38.494C283.102 38.1393 283.2 37.7287 283.2 37.262C283.2 36.7953 283.102 36.3847 282.906 36.03C282.71 35.6753 282.444 35.4047 282.108 35.218C281.772 35.022 281.394 34.924 280.974 34.924C280.554 34.924 280.176 35.022 279.84 35.218C279.504 35.4047 279.238 35.6753 279.042 36.03C278.846 36.3847 278.748 36.7953 278.748 37.262C278.748 37.7287 278.846 38.1393 279.042 38.494C279.238 38.8487 279.504 39.124 279.84 39.32C280.176 39.5067 280.554 39.6 280.974 39.6ZM291.081 33.524H292.831V41H291.081V33.524ZM291.963 32.292C291.645 32.292 291.379 32.194 291.165 31.998C290.95 31.7927 290.843 31.5407 290.843 31.242C290.843 30.9433 290.95 30.696 291.165 30.5C291.379 30.2947 291.645 30.192 291.963 30.192C292.28 30.192 292.546 30.29 292.761 30.486C292.975 30.6727 293.083 30.9107 293.083 31.2C293.083 31.508 292.975 31.7693 292.761 31.984C292.555 32.1893 292.289 32.292 291.963 32.292ZM299.621 40.594C299.416 40.762 299.164 40.888 298.865 40.972C298.576 41.056 298.268 41.098 297.941 41.098C297.12 41.098 296.485 40.8833 296.037 40.454C295.589 40.0247 295.365 39.3993 295.365 38.578V34.98H294.133V33.58H295.365V31.872H297.115V33.58H299.117V34.98H297.115V38.536C297.115 38.9 297.204 39.18 297.381 39.376C297.559 39.5627 297.815 39.656 298.151 39.656C298.543 39.656 298.87 39.5533 299.131 39.348L299.621 40.594ZM307.843 37.304C307.843 37.4253 307.834 37.598 307.815 37.822H301.949C302.052 38.3727 302.318 38.8113 302.747 39.138C303.186 39.4553 303.727 39.614 304.371 39.614C305.192 39.614 305.869 39.3433 306.401 38.802L307.339 39.88C307.003 40.2813 306.578 40.5847 306.065 40.79C305.552 40.9953 304.973 41.098 304.329 41.098C303.508 41.098 302.784 40.9347 302.159 40.608C301.534 40.2813 301.048 39.8287 300.703 39.25C300.367 38.662 300.199 37.9993 300.199 37.262C300.199 36.534 300.362 35.8807 300.689 35.302C301.025 34.714 301.487 34.2567 302.075 33.93C302.663 33.6033 303.326 33.44 304.063 33.44C304.791 33.44 305.44 33.6033 306.009 33.93C306.588 34.2473 307.036 34.7 307.353 35.288C307.68 35.8667 307.843 36.5387 307.843 37.304ZM304.063 34.84C303.503 34.84 303.027 35.008 302.635 35.344C302.252 35.6707 302.019 36.1093 301.935 36.66H306.177C306.102 36.1187 305.874 35.68 305.491 35.344C305.108 35.008 304.632 34.84 304.063 34.84ZM318.96 33.44C319.903 33.44 320.649 33.7153 321.2 34.266C321.751 34.8073 322.026 35.624 322.026 36.716V41H320.276V36.94C320.276 36.2867 320.131 35.7967 319.842 35.47C319.553 35.134 319.137 34.966 318.596 34.966C318.008 34.966 317.537 35.162 317.182 35.554C316.827 35.9367 316.65 36.4873 316.65 37.206V41H314.9V36.94C314.9 36.2867 314.755 35.7967 314.466 35.47C314.177 35.134 313.761 34.966 313.22 34.966C312.623 34.966 312.147 35.1573 311.792 35.54C311.447 35.9227 311.274 36.478 311.274 37.206V41H309.524V33.524H311.19V34.476C311.47 34.14 311.82 33.8833 312.24 33.706C312.66 33.5287 313.127 33.44 313.64 33.44C314.2 33.44 314.695 33.5473 315.124 33.762C315.563 33.9673 315.908 34.2753 316.16 34.686C316.468 34.294 316.865 33.9907 317.35 33.776C317.835 33.552 318.372 33.44 318.96 33.44ZM326.572 41.098C325.966 41.098 325.373 41.0187 324.794 40.86C324.216 40.7013 323.754 40.5007 323.408 40.258L324.08 38.928C324.416 39.152 324.818 39.334 325.284 39.474C325.76 39.6047 326.227 39.67 326.684 39.67C327.73 39.67 328.252 39.3947 328.252 38.844C328.252 38.5827 328.117 38.4007 327.846 38.298C327.585 38.1953 327.16 38.0973 326.572 38.004C325.956 37.9107 325.452 37.8033 325.06 37.682C324.678 37.5607 324.342 37.3507 324.052 37.052C323.772 36.744 323.632 36.3193 323.632 35.778C323.632 35.0687 323.926 34.504 324.514 34.084C325.112 33.6547 325.914 33.44 326.922 33.44C327.436 33.44 327.949 33.5007 328.462 33.622C328.976 33.734 329.396 33.888 329.722 34.084L329.05 35.414C328.416 35.0407 327.702 34.854 326.908 34.854C326.395 34.854 326.003 34.9333 325.732 35.092C325.471 35.2413 325.34 35.442 325.34 35.694C325.34 35.974 325.48 36.1747 325.76 36.296C326.05 36.408 326.493 36.5153 327.09 36.618C327.688 36.7113 328.178 36.8187 328.56 36.94C328.943 37.0613 329.27 37.2667 329.54 37.556C329.82 37.8453 329.96 38.256 329.96 38.788C329.96 39.488 329.657 40.048 329.05 40.468C328.444 40.888 327.618 41.098 326.572 41.098ZM339.83 40.594C339.625 40.762 339.373 40.888 339.074 40.972C338.785 41.056 338.477 41.098 338.15 41.098C337.329 41.098 336.694 40.8833 336.246 40.454C335.798 40.0247 335.574 39.3993 335.574 38.578V34.98H334.342V33.58H335.574V31.872H337.324V33.58H339.326V34.98H337.324V38.536C337.324 38.9 337.413 39.18 337.59 39.376C337.768 39.5627 338.024 39.656 338.36 39.656C338.752 39.656 339.079 39.5533 339.34 39.348L339.83 40.594ZM344.384 41.098C343.628 41.098 342.947 40.9347 342.34 40.608C341.733 40.2813 341.257 39.8287 340.912 39.25C340.576 38.662 340.408 37.9993 340.408 37.262C340.408 36.5247 340.576 35.8667 340.912 35.288C341.257 34.7093 341.733 34.2567 342.34 33.93C342.947 33.6033 343.628 33.44 344.384 33.44C345.149 33.44 345.835 33.6033 346.442 33.93C347.049 34.2567 347.52 34.7093 347.856 35.288C348.201 35.8667 348.374 36.5247 348.374 37.262C348.374 37.9993 348.201 38.662 347.856 39.25C347.52 39.8287 347.049 40.2813 346.442 40.608C345.835 40.9347 345.149 41.098 344.384 41.098ZM344.384 39.6C345.028 39.6 345.56 39.3853 345.98 38.956C346.4 38.5267 346.61 37.962 346.61 37.262C346.61 36.562 346.4 35.9973 345.98 35.568C345.56 35.1387 345.028 34.924 344.384 34.924C343.74 34.924 343.208 35.1387 342.788 35.568C342.377 35.9973 342.172 36.562 342.172 37.262C342.172 37.962 342.377 38.5267 342.788 38.956C343.208 39.3853 343.74 39.6 344.384 39.6ZM358.411 40.594C358.205 40.762 357.953 40.888 357.655 40.972C357.365 41.056 357.057 41.098 356.731 41.098C355.909 41.098 355.275 40.8833 354.827 40.454C354.379 40.0247 354.155 39.3993 354.155 38.578V34.98H352.923V33.58H354.155V31.872H355.905V33.58H357.907V34.98H355.905V38.536C355.905 38.9 355.993 39.18 356.171 39.376C356.348 39.5627 356.605 39.656 356.941 39.656C357.333 39.656 357.659 39.5533 357.921 39.348L358.411 40.594ZM364.092 33.44C365.035 33.44 365.791 33.7153 366.36 34.266C366.929 34.8167 367.214 35.6333 367.214 36.716V41H365.464V36.94C365.464 36.2867 365.31 35.7967 365.002 35.47C364.694 35.134 364.255 34.966 363.686 34.966C363.042 34.966 362.533 35.162 362.16 35.554C361.787 35.9367 361.6 36.492 361.6 37.22V41H359.85V30.612H361.6V34.392C361.889 34.084 362.244 33.8507 362.664 33.692C363.093 33.524 363.569 33.44 364.092 33.44ZM369.434 33.524H371.184V41H369.434V33.524ZM370.316 32.292C369.999 32.292 369.733 32.194 369.518 31.998C369.303 31.7927 369.196 31.5407 369.196 31.242C369.196 30.9433 369.303 30.696 369.518 30.5C369.733 30.2947 369.999 30.192 370.316 30.192C370.633 30.192 370.899 30.29 371.114 30.486C371.329 30.6727 371.436 30.9107 371.436 31.2C371.436 31.508 371.329 31.7693 371.114 31.984C370.909 32.1893 370.643 32.292 370.316 32.292ZM375.791 41.098C375.184 41.098 374.592 41.0187 374.013 40.86C373.434 40.7013 372.972 40.5007 372.627 40.258L373.299 38.928C373.635 39.152 374.036 39.334 374.503 39.474C374.979 39.6047 375.446 39.67 375.903 39.67C376.948 39.67 377.471 39.3947 377.471 38.844C377.471 38.5827 377.336 38.4007 377.065 38.298C376.804 38.1953 376.379 38.0973 375.791 38.004C375.175 37.9107 374.671 37.8033 374.279 37.682C373.896 37.5607 373.56 37.3507 373.271 37.052C372.991 36.744 372.851 36.3193 372.851 35.778C372.851 35.0687 373.145 34.504 373.733 34.084C374.33 33.6547 375.133 33.44 376.141 33.44C376.654 33.44 377.168 33.5007 377.681 33.622C378.194 33.734 378.614 33.888 378.941 34.084L378.269 35.414C377.634 35.0407 376.92 34.854 376.127 34.854C375.614 34.854 375.222 34.9333 374.951 35.092C374.69 35.2413 374.559 35.442 374.559 35.694C374.559 35.974 374.699 36.1747 374.979 36.296C375.268 36.408 375.712 36.5153 376.309 36.618C376.906 36.7113 377.396 36.8187 377.779 36.94C378.162 37.0613 378.488 37.2667 378.759 37.556C379.039 37.8453 379.179 38.256 379.179 38.788C379.179 39.488 378.876 40.048 378.269 40.468C377.662 40.888 376.836 41.098 375.791 41.098ZM387.985 41.098C387.211 41.098 386.515 40.9347 385.899 40.608C385.283 40.2813 384.803 39.8287 384.457 39.25C384.112 38.662 383.939 37.9993 383.939 37.262C383.939 36.5247 384.112 35.8667 384.457 35.288C384.803 34.7093 385.279 34.2567 385.885 33.93C386.501 33.6033 387.201 33.44 387.985 33.44C388.723 33.44 389.367 33.5893 389.917 33.888C390.477 34.1867 390.897 34.616 391.177 35.176L389.833 35.96C389.619 35.6147 389.348 35.358 389.021 35.19C388.704 35.0127 388.354 34.924 387.971 34.924C387.318 34.924 386.777 35.1387 386.347 35.568C385.918 35.988 385.703 36.5527 385.703 37.262C385.703 37.9713 385.913 38.5407 386.333 38.97C386.763 39.39 387.309 39.6 387.971 39.6C388.354 39.6 388.704 39.516 389.021 39.348C389.348 39.1707 389.619 38.9093 389.833 38.564L391.177 39.348C390.888 39.908 390.463 40.342 389.903 40.65C389.353 40.9487 388.713 41.098 387.985 41.098ZM395.546 33.44C396.647 33.44 397.487 33.706 398.066 34.238C398.654 34.7607 398.948 35.554 398.948 36.618V41H397.296V40.09C397.081 40.4167 396.773 40.6687 396.372 40.846C395.98 41.014 395.504 41.098 394.944 41.098C394.384 41.098 393.894 41.0047 393.474 40.818C393.054 40.622 392.727 40.356 392.494 40.02C392.27 39.6747 392.158 39.2873 392.158 38.858C392.158 38.186 392.405 37.6493 392.9 37.248C393.404 36.8373 394.193 36.632 395.266 36.632H397.198V36.52C397.198 35.9973 397.039 35.596 396.722 35.316C396.414 35.036 395.952 34.896 395.336 34.896C394.916 34.896 394.501 34.9613 394.09 35.092C393.689 35.2227 393.348 35.4047 393.068 35.638L392.382 34.364C392.774 34.0653 393.245 33.8367 393.796 33.678C394.347 33.5193 394.93 33.44 395.546 33.44ZM395.308 39.824C395.747 39.824 396.134 39.726 396.47 39.53C396.815 39.3247 397.058 39.0353 397.198 38.662V37.794H395.392C394.384 37.794 393.88 38.1253 393.88 38.788C393.88 39.1053 394.006 39.3573 394.258 39.544C394.51 39.7307 394.86 39.824 395.308 39.824ZM402.86 34.616C403.364 33.832 404.251 33.44 405.52 33.44V35.106C405.371 35.078 405.235 35.064 405.114 35.064C404.433 35.064 403.901 35.2647 403.518 35.666C403.135 36.058 402.944 36.6273 402.944 37.374V41H401.194V33.524H402.86V34.616ZM411.772 40.594C411.567 40.762 411.315 40.888 411.016 40.972C410.727 41.056 410.419 41.098 410.092 41.098C409.271 41.098 408.636 40.8833 408.188 40.454C407.74 40.0247 407.516 39.3993 407.516 38.578V34.98H406.284V33.58H407.516V31.872H409.266V33.58H411.268V34.98H409.266V38.536C409.266 38.9 409.355 39.18 409.532 39.376C409.709 39.5627 409.966 39.656 410.302 39.656C410.694 39.656 411.021 39.5533 411.282 39.348L411.772 40.594ZM413.908 41.098C413.591 41.098 413.32 40.9907 413.096 40.776C412.872 40.552 412.76 40.272 412.76 39.936C412.76 39.5907 412.868 39.3107 413.082 39.096C413.306 38.8813 413.582 38.774 413.908 38.774C414.235 38.774 414.506 38.8813 414.72 39.096C414.944 39.3107 415.056 39.5907 415.056 39.936C415.056 40.272 414.944 40.552 414.72 40.776C414.496 40.9907 414.226 41.098 413.908 41.098Z" fill="#333333"/>
<defs>
<linearGradient id="paint0_linear_4252_12122" x1="107.791" y1="288.597" x2="258.671" y2="288.597" gradientUnits="userSpaceOnUse">
<stop stop-color="#808080" stop-opacity="0.25"/>
<stop offset="0.54" stop-color="#808080" stop-opacity="0.12"/>
<stop offset="1" stop-color="#808080" stop-opacity="0.1"/>
</linearGradient>
<clipPath id="clip0_4252_12122">
<rect width="488" height="382" fill="white" transform="translate(0 79)"/>
</clipPath>
</defs>
</svg>
