<svg xmlns="http://www.w3.org/2000/svg" viewBox="0 0 100 100">
    <g>
        <path fill="#03C" d="M34.77 54a7.7 7.7 0 0 1-5.44-13.14l15.28-15.31a2.88 2.88 0 1 0-4.07-4.07L25.1 36.92A7.69 7.69 0 0 1 14.22 26l15.44-15.4a18.26 18.26 0 0 1 25.83 25.83L40.21 51.71A7.68 7.68 0 0 1 34.77 54zm39.74 1.45L52.09 77.88a2.89 2.89 0 0 1-4.07 0 2.86 2.86 0 0 1 0-4.07l5.6-5.61 16.82-16.82a2.89 2.89 0 0 1 4.92 2 2.84 2.84 0 0 1-.85 2zm10.88-15a18.26 18.26 0 0 0-25.83 0L42.74 57.32l-5.6 5.61-18.69 18.69A7.69 7.69 0 0 0 29.33 92.5l5.93-5.94a18.54 18.54 0 0 0 1.88 2.2 18.26 18.26 0 0 0 25.83 0l22.42-22.43a18.26 18.26 0 0 0 0-25.83z" />
        <path fill="#03C" d="M74.57 40.44a10.57 10.57 0 0 0-14.95 0L44.86 55.2l-.26.25a13.45 13.45 0 1 1-19-19l.25-.26L40.6 21.43a2.88 2.88 0 0 1 4.06 4.06 10.57 10.57 0 0 0-15-14.95L15 25.3a3.07 3.07 0 0 0-.26.25 28.85 28.85 0 0 0-.3 40.45 2.44 2.44 0 0 0 .27.29 28.83 28.83 0 0 0 40.78 0 3.07 3.07 0 0 0 .25-.26l14.76-14.7a2.88 2.88 0 0 1 4.06 4.06 10.57 10.57 0 0 0 0-15z" />
    </g>
</svg>